<?xml version="1.0" standalone="no"?>
<!DOCTYPE svg PUBLIC "-//W3C//DTD SVG 1.1//EN" "http://www.w3.org/Graphics/SVG/1.1/DTD/svg11.dtd" >
<!--
2013-9-30: Created.
-->
<svg>
<metadata>
Created by iconfont
</metadata>
<defs>

<font id="iconfont" horiz-adv-x="1024" >
  <font-face
    font-family="iconfont"
    font-weight="500"
    font-stretch="normal"
    units-per-em="1024"
    ascent="896"
    descent="-128"
  />
    <missing-glyph />
    
    <glyph glyph-name="weixuanzhongyuanquan" unicode="&#58880;" d="M510.44304-44.315042c-237.326197 0-430.396447 193.21249-430.396447 430.695253 0 237.502206 193.07025 430.717765 430.396447 430.717765 237.303684 0 430.40668-193.236026 430.40668-430.717765C940.84972 148.898471 747.791749-44.315042 510.44304-44.315042zM510.44304 771.585409c-212.213239 0-384.861368-172.782182-384.861368-385.182686 0-212.403574 172.647105-385.161197 384.861368-385.161197 212.224496 0 384.870578 172.782182 384.870578 385.161197C895.314641 598.803227 722.667535 771.585409 510.44304 771.585409z"  horiz-adv-x="1024" />

    
    <glyph glyph-name="yonghu" unicode="&#58910;" d="M499.482 294.015c-151.597 0-270.348 125.251-270.348 285.156 0 154.257 127.54 279.769 284.305 279.769 156.743 0 284.24-125.491 284.24-279.769 0-73.17-28.549-142.371-80.367-194.888-8.506-8.571-22.289-8.636-30.838-0.196-8.593 8.462-8.658 22.267-0.218 30.838 43.728 44.272 67.783 102.612 67.783 164.224 0 130.201-107.934 236.151-240.622 236.151-132.71 0-240.687-105.927-240.687-236.151 0-135.436 99.581-241.537 226.729-241.537 12.038 0 21.809-9.749 21.809-21.809s-9.749-21.787-21.787-21.787zM929.691-96c-12.061 0-21.809 9.749-21.809 21.809 0 203.524-175.957 369.1-392.24 369.1-216.282 0-392.261-165.576-392.261-369.1 0-12.061-9.771-21.809-21.809-21.809s-21.809 9.749-21.809 21.809c0 227.58 195.542 412.718 435.88 412.718 240.338 0 435.858-185.138 435.858-412.718 0-12.038-9.749-21.809-21.809-21.809z"  horiz-adv-x="1024" />

    
    <glyph glyph-name="circleyuanquan" unicode="&#59166;" d="M150.1184 745.8816C250.2656 845.9264 370.8928 896 512 896c141.1072 0 261.7344-50.0736 361.8816-150.1184C973.9264 645.7344 1024 525.1072 1024 384c0-141.2096-50.0736-261.8368-150.1184-361.8816C773.7344-77.9264 653.1072-128 512-128c-141.1072 0-261.7344 50.0736-361.8816 150.1184C50.0736 122.1632 0 242.7904 0 384 0 525.1072 50.0736 645.7344 150.1184 745.8816zM512 854.1184c-85.2992 0-164.1472-20.8896-236.3392-62.7712C203.4688 749.568 146.432 692.5312 104.6528 620.3392 62.7712 548.0448 41.8816 469.2992 41.8816 384c0-129.6384 45.9776-240.4352 137.8304-332.288C271.5648-40.2432 382.3616-86.1184 512-86.1184c129.6384 0 240.4352 45.8752 332.288 137.8304C936.2432 143.5648 982.1184 254.3616 982.1184 384c0 129.6384-45.9776 240.3328-137.8304 332.288C752.4352 808.2432 641.6384 854.1184 512 854.1184zM512 640c-36.1472 0-70.144-7.0656-102.1952-20.8896C377.856 605.0816 349.4912 586.6496 324.9152 563.712c-22.9376-24.576-41.472-52.9408-55.3984-84.8896S248.6272 412.672 248.6272 376.6272c0-36.1472 6.9632-70.144 20.8896-102.1952s32.4608-60.3136 55.3984-84.8896C349.4912 166.5024 377.856 148.0704 409.8048 134.144 441.856 120.2176 475.8528 113.2544 512 113.2544c36.1472 0 70.144 6.9632 102.1952 20.8896C646.144 148.0704 674.5088 166.5024 699.0848 189.5424c22.9376 24.576 41.472 52.9408 55.3984 84.8896s20.8896 66.048 20.8896 102.1952c0 36.0448-6.9632 70.144-20.8896 102.1952S722.0224 539.0336 699.0848 563.712C674.5088 586.6496 646.144 605.0816 614.1952 619.1104 582.144 632.9344 548.1472 640 512 640z"  horiz-adv-x="1024" />

    
    <glyph glyph-name="youjiantou" unicode="&#58928;" d="M702.6312 353.23488833L356.711749 702.87610334 321.103764 667.40319434 634.023636 355.61100533 321.63179 59.97886732999996 357.135398 24.604195340000047 669.533384 320.23633334 669.455613 320.22507634Z"  horiz-adv-x="1024" />

    
    <glyph glyph-name="emizhifeiji" unicode="&#58908;" d="M512-128C229.239467-128 0 101.23946699999999 0 384 0 666.760533 229.239467 896 512 896c282.760533 0 512-229.239467 512-512 0-282.760533-229.239467-512-512-512z m0 32.494933c264.8064 0 479.505067 214.698667 479.505067 479.505067S776.8064 863.505067 512 863.505067 32.494933 648.8063999999999 32.494933 384 247.1936-95.50506700000005 512-95.50506700000005z m208.110933 692.0192c13.1072-11.025067 18.7392-28.296533 14.506667-44.6464l-100.693333-389.358933a45.738667 45.738667 0 0 0-27.306667-30.788267c-13.6192-5.666133-29.149867-4.8128-42.052267 2.2528L443.972267 199.67999999999995a16.384 16.384 0 0 1-18.909867-2.491733l-27.989333-26.862934a48.366933 48.366933 0 0 0-42.837334-12.424533 46.728533 46.728533 0 0 0-34.474666 27.409067l-50.3808 119.057066a15.4624 15.4624 0 0 1-7.68 7.850667l-75.1616 35.2256c-17.271467 8.123733-27.374933 24.541867-26.487467 42.9056 0.887467 18.397867 12.629333 33.792 30.5152 40.277333l481.348267 174.421334a48.7424 48.7424 0 0 0 48.196266-8.533334z m-16.110933-37.546666a14.267733 14.267733 0 0 1-4.881067 14.916266 15.803733 15.803733 0 0 1-16.0768 2.8672l-481.348266-174.421333a14.882133 14.882133 0 0 1-1.365334-27.7504l75.195734-35.259733c3.754667-1.774933 7.304533-4.061867 10.478933-6.724267l297.8816 163.293867c7.9872 4.334933 15.940267-5.597867 9.557333-11.8784l-185.105066-181.828267a8.465067 8.465067 0 0 1-1.706667-2.730667l-42.837333-112.366933a16.0768 16.0768 0 0 1 10.922666 4.437333l27.989334 26.862934a48.913067 48.913067 0 0 0 56.763733 7.338666l120.661333-65.6384a16.315733 16.315733 0 0 1 13.994667-0.750933 15.2576 15.2576 0 0 1 9.079467 10.274133l100.795733 389.358934z"  horiz-adv-x="1171" />

    
    <glyph glyph-name="rili" unicode="&#58958;" d="M478.972792 292.8797l63.684438 0c17.832134 0 31.845289 14.013155 31.845289 31.845289s-14.013155 31.845289-31.845289 31.845289L478.972792 356.570277c-17.832134 0-31.845289-14.013155-31.845289-31.845289S461.140659 292.8797 478.972792 292.8797L478.972792 292.8797zM478.972792 165.510824l63.684438 0c17.832134 0 31.845289 14.013155 31.845289 31.845289 0 17.831111-14.013155 31.839149-31.845289 31.839149L478.972792 229.195262c-17.832134 0-31.845289-14.008039-31.845289-31.839149C447.127504 179.523979 461.140659 165.510824 478.972792 165.510824L478.972792 165.510824zM829.239248 738.682022 701.870372 738.682022l0 31.839149c0 17.832134-14.013155 31.845289-31.845289 31.845289s-31.839149-14.013155-31.839149-31.845289l0-31.839149L383.443066 738.682022l0 31.839149c0 17.832134-14.013155 31.845289-31.845289 31.845289-17.832134 0-31.839149-14.013155-31.839149-31.845289l0-31.839149L192.383612 738.682022c-70.054519 0-127.368876-57.319473-127.368876-127.375016l0-509.481643c0-70.055542 57.314357-127.375016 127.368876-127.375016l636.856659 0c70.055542 0 127.375016 57.319473 127.375016 127.375016L956.615287 611.308029C956.614264 681.362548 899.29479 738.682022 829.239248 738.682022L829.239248 738.682022zM892.929826 101.826386c0-35.026748-28.662807-63.684438-63.690578-63.684438L192.383612 38.141948c-35.026748 0-63.684438 28.65769-63.684438 63.684438l0 382.112768 764.230652 0L892.929826 101.826386 892.929826 101.826386zM892.929826 547.623591 128.699174 547.623591l0 63.684438c0 35.028794 28.65769 63.690578 63.684438 63.690578l127.375016 0 0-31.845289c0-17.832134 14.007015-31.845289 31.839149-31.845289 17.832134 0 31.845289 14.013155 31.845289 31.845289l0 31.845289 254.743892 0 0-31.845289c0-17.832134 14.007015-31.845289 31.839149-31.845289s31.845289 14.013155 31.845289 31.845289l0 31.845289 127.368876 0c35.027771 0 63.690578-28.662807 63.690578-63.690578L892.930849 547.623591 892.929826 547.623591zM287.913339 165.510824l63.684438 0c17.832134 0 31.845289 14.013155 31.845289 31.845289 0 17.831111-14.013155 31.839149-31.845289 31.839149l-63.684438 0c-17.832134 0-31.839149-14.008039-31.839149-31.839149C256.07419 179.523979 270.081205 165.510824 287.913339 165.510824L287.913339 165.510824zM670.025083 292.8797l63.690578 0c17.832134 0 31.839149 14.013155 31.839149 31.845289s-14.007015 31.845289-31.839149 31.845289l-63.690578 0c-17.832134 0-31.839149-14.013155-31.839149-31.845289S652.192949 292.8797 670.025083 292.8797L670.025083 292.8797zM287.913339 292.8797l63.684438 0c17.832134 0 31.845289 14.013155 31.845289 31.845289s-14.013155 31.845289-31.845289 31.845289l-63.684438 0c-17.832134 0-31.839149-14.013155-31.839149-31.845289S270.081205 292.8797 287.913339 292.8797L287.913339 292.8797zM670.025083 165.510824l63.690578 0c17.832134 0 31.839149 14.013155 31.839149 31.845289 0 17.831111-14.007015 31.839149-31.839149 31.839149l-63.690578 0c-17.832134 0-31.839149-14.008039-31.839149-31.839149C638.185934 179.523979 652.192949 165.510824 670.025083 165.510824L670.025083 165.510824zM670.025083 165.510824"  horiz-adv-x="1024" />

    
    <glyph glyph-name="top" unicode="&#58985;" d="M536.255427 700.817646c-7.804756 7.804756-17.966187 11.615549-28.311813 11.615549-9.43693 0-18.874883-3.449565-26.496467-10.163477-2.360767-1.452071-4.356214-3.267417-6.352685-5.262864L218.47792 440.388265c-15.607466-15.60542-15.607466-40.834011 0-56.43943 15.607466-15.607466 41.558511-15.607466 57.167001 0l193.46013 192.733583 0-600.526219c0-22.1423 17.787108-39.927361 39.927361-39.927361 22.140253 0 39.927361 17.785062 39.927361 39.927361L548.959773 576.682417 737.15704 387.577478c15.607466-15.607466 40.469714-15.607466 56.078203 0 15.607466 15.607466 15.425318 40.834011-0.182149 56.441477L536.255427 700.817646 536.255427 700.817646zM101.784174 752.902908l816.674071 0c22.140253 0 39.925315 17.785062 39.925315 39.927361 0 22.140253-17.784038 39.925315-39.925315 39.925315L101.784174 832.755584c-22.140253 0-39.927361-17.785062-39.927361-39.925315C61.856813 770.68797 79.643921 752.902908 101.784174 752.902908L101.784174 752.902908z"  horiz-adv-x="1024" />

    
    <glyph glyph-name="gou_ico" unicode="&#58993;" d="M384 147.2c25.6-25.6 64-25.6 83.2 0l384 384c25.6 25.6 25.6 64 0 89.6-25.6 25.6-64 25.6-89.6 0L422.4 281.6C371.2 339.2 313.6 390.4 262.4 448c-25.6 25.6-64 25.6-89.6 0-25.6-25.6-25.6-64 0-89.6L384 147.2z"  horiz-adv-x="1024" />

    
    <glyph glyph-name="fanhui" unicode="&#58945;" d="M947.4 32C893.2 198.3 736.2 317.1 551 320.5c-23.1 0.4-44.9-0.1-65.6-1.5v-164.3c0.1-0.5 0.2-1 0.2-1.5 0-4-3.3-7.3-7.3-7.3-2.7 0-5 1.4-6.2 3.5v-0.7L68.8 430.6h2.1c-4 0-7.3 3.3-7.3 7.3 0 2.9 1.7 5.4 4.1 6.6L472 727v-0.7c1.3 2.1 3.6 3.5 6.2 3.5 4 0 7.3-3.3 7.3-7.3 0-0.5-0.1-1-0.2-1.5v-159.4c18.5 0.9 37.9 1.2 58.3 0.8 230.1-3.9 416.7-196.9 416.7-427.1 0.1-35.5-4.5-70.2-12.9-103.3z m-462 704.4v-0.2h-0.4l0.4 0.2z m0-596.9l-0.3 0.2h0.3v-0.2z"  horiz-adv-x="1024" />

    
    <glyph glyph-name="xiajiantou" unicode="&#58986;" d="M862.752 569.984H161.248l349.696-371.936L862.72 569.984z"  horiz-adv-x="1024" />

    
    <glyph glyph-name="jiahaozhankai" unicode="&#58924;" d="M815.2-15.7H210.8c-55.4 0-100.7 45.3-100.7 100.7V689.5c0 55.4 45.3 100.7 100.7 100.7h604.5c55.4 0 100.7-45.3 100.7-100.7V85c0-55.3-45.3-100.7-100.8-100.7zM210.8 739.9c-30.2 0-50.4-20.1-50.4-50.4V85c0-30.2 20.1-50.4 50.4-50.4h604.5c30.2 0 50.4 20.1 50.4 50.4V689.5c0 30.2-20.1 50.4-50.4 50.4H210.8z m0 0M714.5 362.1h-403c-15.1 0-25.2 10.1-25.2 25.2s10.1 25.2 25.2 25.2h403c15.1 0 25.2-10.1 25.2-25.2s-10.1-25.2-25.2-25.2z m0 0M513 160.6c-15.1 0-25.2 10.1-25.2 25.2v403c0 15.1 10.1 25.2 25.2 25.2s25.2-10.1 25.2-25.2v-403c0-15.1-10.1-25.2-25.2-25.2z m0 0"  horiz-adv-x="1024" />

    
    <glyph glyph-name="shinshopshouhuodizhi" unicode="&#58959;" d="M924.4 86.6L875 316.1c-5.5 25.8-19.8 49.1-40.2 65.7-20.5 16.6-46.2 25.7-72.5 25.7h-56.6c2.4 5.5 4.7 11 6.9 16.5 22.7 57 34.3 111.4 34.3 161.6 0 130.2-105.3 236.1-234.8 236.1S277.2 715.8 277.2 585.6c0-50.7 11.5-105.4 34.3-162.6 2.1-5.2 4.2-10.4 6.5-15.6h-56.2c-26.3 0-52-9.1-72.5-25.7-20.4-16.6-34.7-39.9-40.2-65.7L99.6 86.6c-7.4-34.5 1-70 23.2-97.5 22-27.2 54.6-42.8 89.5-42.8h599.3c34.9 0 67.5 15.6 89.5 42.8 22.2 27.4 30.7 62.9 23.3 97.5zM512 764.9c98.1 0 178-80.4 178-179.2 0-54.2-17-144.7-97.9-267.8-30.3-46-60.8-83.3-80.1-105.4-19.3 22-49.8 58.9-80 104.7-81 122.6-98 213.6-98 268.5 0 98.8 79.9 179.2 178 179.2z m345-740.1c-11.2-13.8-27.7-21.7-45.3-21.7H212.4c-17.6 0-34.2 7.9-45.3 21.7-11.3 14-15.6 32.2-11.8 49.8l49.3 229.5c5.8 26.9 29.8 46.5 57.1 46.5h83.9c11.8-21.8 25-43.8 39.6-65.8 52.5-79.4 104.5-132.3 106.7-134.5 5.3-5.4 12.6-8.5 20.2-8.5h0.1c7.6 0 14.9 3.1 20.2 8.6 2.2 2.2 54.1 55.6 106.6 135.3 14.4 21.8 27.4 43.5 39 65h84.4c27.3 0 51.4-19.6 57.1-46.5l49.3-229.5c3.8-17.7-0.5-35.9-11.8-49.9zM512 485.1c57.6 0 104.5 47.1 104.5 104.9 0 57.9-46.9 104.9-104.5 104.9s-104.5-47-104.5-104.9c0-57.8 46.9-104.9 104.5-104.9z m0 153c26.3 0 47.6-21.6 47.6-48.1s-21.4-48.1-47.6-48.1-47.6 21.6-47.6 48.1 21.3 48.1 47.6 48.1z"  horiz-adv-x="1024" />

    
    <glyph glyph-name="shixinjiantou-xiangshang" unicode="&#58987;" d="M848.79962158 240.31942748999995L528.5309906 560.6653061c-4.40311433 4.40311433-10.27393342 6.79779052-16.5309906 6.79779051s-12.12787628-2.47192383-16.5309906-6.79779052L175.20037842 240.31942748999995c-6.64329529-6.64329529-8.6517334-16.68548583-5.02109528-25.41446687 3.63063813-8.72898102 12.12787628-14.36805725 21.55208588-14.36805723h640.61450958c9.42420959 0 17.92144777 5.71632385 21.55208588 14.36805723 3.5533905 8.72898102 1.62220001 18.77117157-5.0983429 25.41446687z"  horiz-adv-x="1024" />

    
    <glyph glyph-name="home1" unicode="&#58913;" d="M709.95734038-54.57104786000002h89.53327711L799.32093977-100.44059157000004H304.65382575c-41.40136377 0-89.47671787 20.70068189-122.39419562 52.99600798-32.91747775 32.46500383-54.07063354 79.57885084-54.07063353 120.13182599V441.84940264l-57.23795099-54.91902217a24.09423629 24.09423629 0 0 0-32.80435926 0A21.83186668 21.83186668 0 0 0 31.24645905 402.48417151c0 5.88216097 2.43204733 11.53808499 6.9002273 15.61035025L473.93563139 836.0673062c34.8404919 33.36995167 95.86791199 33.36995167 130.65184467 0l437.88163695-417.8031067c9.10603765-8.76668222 9.10603765-22.62369604 0-31.33381903a23.47208465 23.47208465 0 0 0-32.35188534-0.39591469l-57.74698415 55.20181835v-369.44495639l-47.2269655 0.39591466v380.64368596a23.18928845 23.18928845 0 0 0 13.29142143 20.81380037L572.29214995 804.95972414a48.75406499 48.75406499 0 0 1-65.38248157 0L161.95486294 474.20128797c7.97485285-3.6763506 13.46109915-11.65120346 13.46109916-20.92691885v-380.98304138c0-28.39273854 16.40217963-63.74226361 40.38329743-87.2709075 23.8114401-23.35896615 60.51838691-39.59146809 89.08080318-39.5914681H370.60189971v270.6925232c0.22623696 90.77758037 75.90250023 164.02179632 169.67772035 164.19147403 93.7752201-0.22623696 169.45148337-73.41389365 169.67772032-164.19147403v-270.6925232z m238.05784165 83.25520145c-5.20345008-26.58284285-16.40217963-54.24031127-38.34716481-76.12873718-18.66454924-18.26863456-37.04630227-31.67317446-55.71085149-40.38329743l94.0580163 116.51203461z m-93.8883386-116.51203461c0.90494785 0.16967772-20.47444492 41.79727844-19.6260563 41.96695616 13.46109915 6.33463489 27.14843525 16.68497584 41.85383768 31.27725976 13.85701381 13.57421762 21.09659655 31.89941142 25.05574336 50.168046 0 0.39591469 46.60481386-7.52237894 46.60481386-7.12646427l-93.8883386-116.28579765z m-435.11023417 34.21834027h242.35634387v269.78757533c0 64.70377069-54.35342975 117.07762703-121.09333307 117.07762702-66.73990334 0-121.03677385-52.6000933-121.03677384-117.07762702v-269.78757533h-0.22623696z"  horiz-adv-x="1064" />

    
    <glyph glyph-name="expert" unicode="&#58914;" d="M961.293168 385.747724A33.129353 33.129353 0 0 0 963.76281 373.15857v-106.074166c0-18.130792-15.058797-33.67147-32.647472-33.67147a33.731705 33.731705 0 0 0-32.587236 33.67147V355.208484a30.479005 30.479005 0 0 0-1.807056 10.239982V456.584305a77.10104 77.10104 0 0 1-76.920335 76.498688H199.257806c-42.164631 0-76.98057-34.514763-76.98057-76.498688v-446.463212c0-41.983926 34.755703-76.498689 76.98057-76.498689H822.210119c42.164631 0 76.98057 34.514763 76.98057 76.498689v101.13488c0 17.227264 14.878091 32.04512 32.225825 32.04512 17.407969 0 32.286061-14.817856 32.286061-32.04512v-101.195115C961.293168-66.317361 896.721046-127.998193 819.800711-127.998193H199.257806A138.360226 138.360226 0 0 0 60.234993 10.181328V456.64454C60.234993 533.143229 122.277236 594.824061 199.257806 594.824061H822.210119a138.360226 138.360226 0 0 0 139.022813-138.179521V385.807959zM481.881308 233.412934H332.678747C315.75266 233.412934 301.175744 246.303264 301.175744 261.362061v4.336934c0 15.058797 14.576915 27.949127 31.503003 27.949127H481.881308V379.904911C481.881308 397.011704 494.349992 414.118497 510.974903 414.118497h2.047997C527.66005 414.118497 542.116496 399.481347 542.116496 379.904911V293.648122h88.967372c16.926088 0 31.503003-12.89033 31.503003-27.949127v-4.336934c0-15.058797-14.576915-27.949127-31.503003-27.949127H542.116496v-148.96162c0-17.106793-14.51668-31.743944-29.093596-31.743943-16.624912 0-31.141592 14.637151-31.141592 34.213586V233.412934z m200.763881 440.018047c-17.52844 0-30.117594 12.950565-30.117594 31.021122 0 72.462931-65.234708 129.445419-145.528214 129.445418C426.64564 833.897521 361.410932 774.324921 361.410932 704.452103c0-18.070556-12.528919-31.021122-30.117594-31.021122-17.588675 0-30.117594 12.950565-30.117594 31.021122C301.175744 810.586504 394.058404 896 506.999381 896c112.940977 0 205.763402-85.413496 205.763402-191.547897 0-18.070556-12.528919-31.021122-30.117594-31.021122z m278.647979-287.683257a33.310059 33.310059 0 0 1-30.117594 21.082316 33.731705 33.731705 0 0 1-32.647472-33.67147v-17.950086a32.948648 32.948648 0 0 1 30.479005-21.865373 32.767942 32.767942 0 0 1 32.286061 32.045119V385.807959z"  horiz-adv-x="1024" />

    
    <glyph glyph-name="expert1" unicode="&#58915;" d="M968.864154 517.443427a189.008544 189.008544 0 0 0 0-266.886315l-323.36791-323.367911A187.553388 187.553388 0 0 0 511.999192-127.998922a187.391704 187.391704 0 0 0-133.389263 55.188123l-323.4757 323.367911a189.008544 189.008544 0 0 0 0 266.832421l323.4757 323.36791A187.391704 187.391704 0 0 0 511.999192 895.999461c50.391499 0 97.764898-19.617653 133.389263-55.188123l323.475699-323.367911zM970.103731 384.161953c0 36.109417-14.012609 69.901363-39.504779 95.339639l-323.098438 322.990648A133.766526 133.766526 0 0 1 511.999192 842.104809c-36.163311 0-70.063047-14.066504-95.501323-39.612569L93.399431 479.501592A134.197683 134.197683 0 0 1 53.894652 383.838586c0-36.109417 14.012609-69.901363 39.504779-95.285745l323.098438-323.044542A134.197683 134.197683 0 0 1 511.999192-74.10427c36.163311 0 70.063047 14.066504 95.501322 39.612569l323.098438 322.990648A134.197683 134.197683 0 0 1 970.103731 384.161953zM781.149082 497.717985a27.162904 27.162904 0 0 0 27.270694-27.270694v-173.001832a27.162904 27.162904 0 0 0-27.270694-27.270694h-155.270491v-155.378281c0-15.036608-12.234086-27.270694-27.324589-27.270694H425.767749a27.162904 27.162904 0 0 0-27.270694 27.270694V270.282554H242.849301A27.162904 27.162904 0 0 0 215.578607 297.499353V470.339502a27.216799 27.216799 0 0 0 27.270694 27.270693H398.281476V653.15016A27.162904 27.162904 0 0 0 425.55217 680.420854h172.894043a27.162904 27.162904 0 0 0 27.270694-27.270694V497.717985h155.432175z m-336.248732-180.870452a27.162904 27.162904 0 0 0 7.976409-19.402074v-155.378281H571.283309v155.378281a27.162904 27.162904 0 0 0 27.270693 27.270694h155.432176V443.122702h-155.432176a27.162904 27.162904 0 0 0-27.270693 27.270694V625.717783H452.984548v-155.378281a27.162904 27.162904 0 0 0-27.270694-27.270694H270.173889v-118.244866h155.378281c7.221883 0 14.120399-2.856417 19.402075-7.922514z"  horiz-adv-x="1024" />

    
    <glyph glyph-name="expert2" unicode="&#58916;" d="M731.858824 896H330.089412C168.96 896 37.888 767.457882 37.888 609.460706V511.698824a28.310588 28.310588 0 0 1 28.551529-28.009412 28.310588 28.310588 0 0 1 28.55153 28.009412V609.460706C94.991059 736.557176 200.402824 839.981176 330.089412 839.981176h401.769412c129.566118 0 235.038118-103.424 235.038117-230.52047v-393.999059c0-127.096471-105.411765-230.580706-235.098353-230.580706H330.089412c-129.566118 0-235.038118 103.424-235.038118 230.580706V332.559059h116.133647a28.611765 28.611765 0 0 1 26.021647 16.444235l26.021647 56.380235L370.447059 149.082353c4.517647-10.842353 15.480471-17.769412 27.407059-17.347765a28.491294 28.491294 0 0 1 26.081882 19.154824l139.023059 410.985412 58.428235-202.932706c3.493647-12.047059 14.757647-20.359529 27.52753-20.35953h224.677647a28.310588 28.310588 0 0 1 28.491294 28.009412 28.310588 28.310588 0 0 1-28.55153 28.009412h-202.992941L592.715294 664.816941a28.491294 28.491294 0 0 1-26.864941 20.35953 28.551529 28.551529 0 0 1-27.708235-19.154824l-144.082824-425.863529-103.243294 246.603294a28.551529 28.551529 0 0 1-25.901176 17.347764 28.431059 28.431059 0 0 1-26.50353-16.444235l-45.718588-99.147294H28.551529A28.310588 28.310588 0 0 1 0 360.568471a28.310588 28.310588 0 0 1 28.551529-28.009412H37.948235v-117.097412c0-157.997176 131.072-286.599529 292.141177-286.599529h401.769412c161.129412 0 292.201412 128.602353 292.201411 286.599529v393.938824C1024 767.518118 892.928 896 731.858824 896z"  horiz-adv-x="1024" />

    
    <glyph glyph-name="cjwenti" unicode="&#58917;" d="M973.784615 896c53.563077 0 97.398154-44.819692 92.514462-99.643077v-418.422154c-58.446769 99.643077-170.417231 169.353846-292.155077 169.353846-189.873231 0-340.795077-154.387692-340.795077-348.672 0-34.894769 4.844308-69.750154 14.572308-99.643077H350.601846c-185.028923-124.534154-277.543385-184.32-277.543384-184.32s19.495385 64.787692 58.446769 184.32h-34.067693c-53.563077 0-97.398154 44.819692-97.398153 99.643077V796.356923C0 851.180308 43.835077 896 97.398154 896h876.386461zM350.562462 417.792c19.495385 0 38.951385 19.928615 38.951384 39.857231s-19.456 39.857231-38.951384 39.857231h-214.252308c-19.456 0-38.912-19.928615-38.912-39.857231s19.456-39.857231 38.951384-39.857231H350.523077z m584.270769 249.068308c19.495385 0 38.990769 19.928615 38.990769 39.85723s-19.495385 39.857231-38.990769 39.857231H136.349538c-19.495385 0-38.990769-19.928615-38.990769-39.857231s19.495385-39.857231 38.990769-39.85723h798.483693zM810.653538-128C646.419692-128 512 6.419692 512 170.653538c0 164.273231 134.419692 298.692923 298.653538 298.692924 164.273231 0 298.692923-134.419692 298.692924-298.692924 0-164.233846-134.419692-298.653538-298.692924-298.653538z m24.891077 204.091077c0 19.928615 0 34.855385 5.001847 44.780308 4.962462 9.964308 14.926769 19.928615 29.853538 34.855384 29.853538 24.891077 49.782154 44.819692 59.746462 59.746462 9.924923 14.926769 14.926769 29.853538 14.926769 49.782154 0 29.853538-14.966154 59.707077-39.817846 79.635692-24.891077 19.889231-59.746462 34.855385-104.52677 34.855385-39.857231 0-74.673231-9.964308-99.564307-34.855385-24.891077-24.891077-39.817846-49.782154-39.817846-84.637539l69.710769-9.924923c4.923077 24.851692 14.887385 39.778462 24.851692 49.74277 14.966154 9.964308 29.853538 14.966154 49.782154 14.966153 19.889231 0 34.855385-5.001846 49.782154-14.966153 14.926769-9.924923 19.889231-24.851692 19.889231-39.778462 0-9.964308-4.962462-19.928615-9.924924-29.892923-5.001846-4.962462-19.928615-19.928615-39.85723-34.855385-24.851692-19.889231-39.778462-34.816-44.780308-49.782153-9.964308-14.926769-9.964308-34.816-9.964308-54.744616v-19.889231h64.708923v4.962462z m-69.710769-104.526769h74.712616v74.67323h-74.673231v-74.67323z"  horiz-adv-x="1142" />

    
    <glyph glyph-name="hyzhibo" unicode="&#58918;" d="M947.554462 379.431385l167.424 74.555077a36.352 36.352 0 0 0 34.658461-2.756924 36.627692 36.627692 0 0 0 16.580923-30.64123v-408.14277a36.627692 36.627692 0 0 0-16.541538-30.72 36.352 36.352 0 0 0-34.658462-2.756923l-167.463384 74.594462v-108.425846A73.019077 73.019077 0 0 0 874.692923-128H72.861538A73.019077 73.019077 0 0 0 0-54.862769V530.274462C0 570.683077 32.649846 603.411692 72.861538 603.411692h801.792c40.251077 0 72.900923-32.728615 72.900924-73.13723v-150.843077zM564.893538 640a127.488 127.488 0 0 0-110.473846 64 128.393846 128.393846 0 0 0 0 128A127.488 127.488 0 0 0 564.893538 896a127.763692 127.763692 0 0 0 127.527385-128c0-70.695385-57.107692-128-127.527385-128z m-255.133538 0c-32.531692 0-62.621538 17.408-78.887385 45.686154a91.687385 91.687385 0 0 0 0 91.451077 91.057231 91.057231 0 0 0 170.023385-45.686154A91.254154 91.254154 0 0 0 309.76 640z m54.665846-548.588308c0-12.996923 6.931692-25.048615 18.156308-31.586461a36.352 36.352 0 0 1 36.391384-0.157539l255.094154 146.313846a36.627692 36.627692 0 0 1 0 63.488l-255.094154 146.274462a36.352 36.352 0 0 1-36.391384-0.118154 36.627692 36.627692 0 0 1-18.116923-31.625846v-292.588308z m72.900923 229.612308l145.211077-83.298462-145.211077-83.298461v166.596923z"  horiz-adv-x="1181" />

    
    <glyph glyph-name="hlxuanjiao" unicode="&#58919;" d="M503.335515 670.668635c136.347493 0 246.89845-111.25987 246.89845-248.473811 0-137.174558-110.550957-248.434427-246.859066-248.434427s-246.89845 111.25987-246.898451 248.434427c0 137.213942 110.590341 248.473811 246.898451 248.473811z m-108.581756-526.170569h217.24228c173.762317 0 315.938646-17.525891 315.938645-192.430344V-128H78.775729v80.067722c0 174.865069 142.176329 192.430344 315.97803 192.430344zM271.718066 584.457005c22.685198 40.329241 58.879117 70.2611 101.610783 89.716809 40.565545 18.549876 87.038694 27.686969 133.27554 27.371897 46.276229-0.315072 92.316154-10.042926 131.936482-29.222947 40.565545-19.613244 74.593343-49.151263 95.388108-88.495903l75.381023 151.510343a483.281366 483.281366 0 0 1-65.180561 67.464834C671.89914 863.965428 588.365624 895.19696 503.886891 895.98464c-84.675653 0.748296-170.375291-28.947258-246.859066-89.795576A522.232167 522.232167 0 0 1 184.324915 735.415972c16.895747-30.404467 30.640771-53.562273 44.346412-76.641312 13.351184-22.567046 26.662985-45.055324 43.007355-74.278271zM464.34533 875.623099h53.837962v-49.938943h49.623871V771.531122h-49.623871v-49.938943H464.384714V771.531122h-49.623871V825.684156h49.623871V875.623099z"  horiz-adv-x="1024" />

    
    <glyph glyph-name="kpshijian" unicode="&#58920;" d="M970.121846 856.300308L81.132308 860.317538l-23.000616-13.902769-11.342769-20.086154 1.536-64.512 11.933539-18.116923 17.723076-10.988307 54.508308-1.378462L135.68-128s-13.981538 2.166154-71.719385 2.166154S0-69.041231 0-69.041231 1.536 778.515692 1.536 834.284308C1.536 892.849231 73.216 896 73.216 896l842.318769-1.378462 54.587077-38.32123zM539.175385 788.204308l211.416615-5.750154v-315.588923l-104.211692 77.469538-108.662154-77.469538 1.457231 321.378461z m107.559384-501.563077c74.318769 0 134.734769-62.621538 134.734769-139.933539 0-77.351385-60.258462-139.972923-134.695384-139.972923-74.476308 0-134.774154 62.621538-134.774154 139.972923 0 77.312 60.258462 139.933538 134.734769 139.933539z m16.738462-159.389539v-0.118154h45.528615l-0.748308 38.084924H663.630769l-0.118154 46.788923-35.918769 0.275692-0.118154-47.182769-44.898461-0.118154-0.630154-37.336616 45.371077 0.118154 0.157538-47.419077h36.036923v46.907077z m157.420307 604.16l176.167385-1.260307-3.229538-795.805539S990.641231-128 929.358769-128s-740.745846 1.378462-740.745846 1.378462V734.326154l312.989539-4.332308 1.575384-348.278154 160.374154 102.006154 151.04-103.384615 6.301538 351.074461z m-154.269538-759.21723c93.617231 0 169.511385 74.712615 169.511385 166.83323 0 92.16-75.894154 166.833231-169.511385 166.833231-93.577846 0-169.511385-74.712615-169.511385-166.833231 0-92.120615 75.933538-166.833231 169.511385-166.83323z"  horiz-adv-x="1024" />

    
    <glyph glyph-name="cyzhinan" unicode="&#58921;" d="M1175.080172 785.92c17.565538 0 31.783385-14.060308 31.783385-31.428923 0-17.408-14.178462-31.468308-31.783385-31.468308H1095.680788v-78.611692c0-17.368615-14.178462-31.468308-31.783385-31.468308a31.586462 31.586462 0 0 0-31.744 31.468308V723.022769H952.714634a31.586462 31.586462 0 0 0-31.744 31.468308c0 17.329231 14.178462 31.428923 31.744 31.428923h79.438769V864.531692c0 17.368615 14.178462 31.468308 31.744 31.468308 17.565538 0 31.783385-14.099692 31.783385-31.468308v-78.611692h79.399384zM937.354634 168.172308v87.04l231.975384-139.145846-231.975384-134.340924v76.8h-249.304616s-29.735385 3.387077-29.735384 42.456616v30.168615s-0.708923 34.264615 38.754461 37.021539H937.354634z m164.903384-232.290462c17.408 0 31.507692-14.296615 31.507693-31.940923a31.704615 31.704615 0 0 0-31.507693-31.940923H31.50848a31.704615 31.704615 0 0 0-31.507692 31.940923c0 17.644308 14.060308 31.901538 31.507692 31.901539h52.460308V795.569231c0 35.209846 28.278154 63.842462 63.015384 63.842461h645.592616c34.697846 0 62.976-28.632615 62.976-63.842461v-283.214769h157.459692c34.697846 0 62.976-28.672 62.976-63.881847v-211.180307l-63.015385 37.572923 0.039385 173.607384h-157.459692v-238.00123h-260.568616v-192.118154h260.568616v-80.896h157.420307l0.315077 0.196923L1075.98848-21.661538v-42.417231h26.230154zM296.566942 589.272615c-17.408 0-31.507692-14.296615-31.507693-31.901538 0-17.683692 14.099692-31.980308 31.507693-31.980308h338.550153c17.408 0 31.468308 14.296615 31.468308 31.940923a31.704615 31.704615 0 0 1-31.507692 31.940923H296.566942z m-31.507693-191.606153c0-17.683692 14.099692-31.940923 31.507693-31.940924h338.550153c17.408 0 31.468308 14.257231 31.468308 31.901539a31.704615 31.704615 0 0 1-31.507692 31.940923H296.566942c-17.408 0-31.507692-14.257231-31.507693-31.901538z m749.292308-464.147693v3.938462h-0.039385v-3.938462h0.039385z"  horiz-adv-x="1220" />

    
    <glyph glyph-name="rjshoushu" unicode="&#58922;" d="M890.643692 843.500308L623.891692 580.923077l80.029539-78.769231 266.752 262.577231L1024 712.231385l-266.712615-262.577231s23.236923-39.305846-53.366154-52.499692c-75.027692-12.957538-166.281846-90.663385-186.683077-210.077539-23.630769-138.043077-289.161846-317.006769-506.801231-157.538461 0 0-23.473231 29.262769 0 52.539076C33.831385 105.314462 837.316923 896 837.316923 896l53.326769-52.499692zM117.129846 82.077538c-22.567385-21.661538 0-26.269538 0-26.269538 199.522462-50.018462 312.635077 84.125538 346.702769 210.038154 43.677538 150.094769 186.761846 183.808 186.761847 183.808l-80.029539 78.769231S139.657846 103.739077 117.090462 82.077538z m299.953231 185.777231a12.996923 12.996923 0 0 0-4.411077 18.038154 13.390769 13.390769 0 0 0 18.274462 4.371692 12.996923 12.996923 0 0 0 4.450461-18.077538 13.390769 13.390769 0 0 0-18.313846-4.332308z m-164.627692-177.900307l-65.536-15.596308c-22.331077-5.277538-25.796923 20.873846-4.253539 26.033231l89.403077 21.267692c55.532308 13.154462 105.550769 59.470769 108.307692 107.008 1.378462 22.843077 25.757538 19.259077 24.418462 10.161231-1.181538-80.896-77.902769-131.190154-152.379077-148.873846z m-215.355077-165.415385h293.415384c14.729846 0 26.663385-11.736615 26.663385-26.269539a26.466462 26.466462 0 0 0-26.663385-26.269538H37.100308a26.466462 26.466462 0 0 0-26.663385 26.269538c0 14.532923 11.894154 26.269538 26.663385 26.269539z m400.108307 0h53.32677c14.729846 0 26.663385-11.736615 26.663384-26.269539a26.466462 26.466462 0 0 0-26.663384-26.269538h-53.32677a26.466462 26.466462 0 0 0-26.663384 26.269538c0 14.532923 11.933538 26.269538 26.663384 26.269539z m160.019693 0h53.366154c14.729846 0 26.663385-11.736615 26.663384-26.269539a26.466462 26.466462 0 0 0-26.663384-26.269538h-53.366154a26.466462 26.466462 0 0 0-26.663385 26.269538c0 14.532923 11.933538 26.269538 26.663385 26.269539z m160.059077 0h53.366153c14.729846 0 26.663385-11.736615 26.663385-26.269539a26.466462 26.466462 0 0 0-26.663385-26.269538h-53.366153a26.466462 26.466462 0 0 0-26.663385 26.269538c0 14.532923 11.933538 26.269538 26.663385 26.269539z m160.019692 0h53.366154c14.729846 0 26.663385-11.736615 26.663384-26.269539a26.466462 26.466462 0 0 0-26.663384-26.269538h-53.366154a26.466462 26.466462 0 0 0-26.663385 26.269538c0 14.532923 11.933538 26.269538 26.663385 26.269539z"  horiz-adv-x="1024" />

    
    <glyph glyph-name="lcyanjiu" unicode="&#58923;" d="M792.494026 4.449142v34.410044l33.032068 31.61472v-66.024764h-33.032068z m214.688754 197.40499l-35.945504 33.740741h85.434549v-78.623407l-29.882407 27.205195-109.450712-88.111761-60.827824 49.489045-97.048923-75.080039v32.677731l97.048923 75.040668 59.174252-49.489045 91.497646 73.150872z m-22.086996-197.40499v124.84468L1023.639758 169.530738v-165.081596h-38.583345z m-126.576993 101.064741l19.17356 19.960975 19.17356-19.960975v-101.064741h-38.34712v101.064741z m62.953845-25.86659l8.504084-7.322961 29.803665 31.417866v-99.293056h-38.307749v75.198151z m-12.598644 250.24055a209.609926 209.609926 0 0 1-209.058735-209.84615 210.161116 210.161116 0 1 1 209.058735 209.84615z m0 37.79593a247.366484 247.366484 0 0 0 246.854665-247.64208 247.64208 247.64208 0 1 0-246.854665 247.64208z m-251.067335-122.324951a294.572026 294.572026 0 0 1-32.244653-83.859719H83.466011v-154.097154a37.008514 37.008514 0 0 0-12.519902-26.811488 36.575436 36.575436 0 0 0-28.071351-8.976533A40.94559 40.94559 0 0 0 0 7.44132V858.20407C2.440987 879.149315 19.68538 895.212585 40.591253 896h4.724492c20.70902-0.275595 37.480963-16.929427 38.110895-37.756559v-134.766111c9.606465 6.22058 20.787761 9.606465 32.244653 9.803319h104.253772a128.624273 128.624273 0 0 0 83.387269-32.992696 109.84442 109.84442 0 0 0 37.559705-80.237609v-35.23683A114.568911 114.568911 0 0 0 326.3836 538.907208h513.788416c83.42664-0.472449 150.711269-68.780718 150.396303-152.679807v-3.897705a300.359527 300.359527 0 0 1-76.458016 10.354509h-3.897705c-0.275595 18.11055-7.874152 35.433684-21.102727 47.756732a65.946023 65.946023 0 0 1-48.937855 17.677471H81.182507v-212.798957h576.62415zM115.120102 654.972208a34.016337 34.016337 0 0 1-31.693462-33.268292v-42.205455c0-19.016077 8.897792-40.276287 32.244653-40.276287H218.507717a45.670081 45.670081 0 0 1 46.142531 40.276287v34.921864a45.945677 45.945677 0 0 1-46.142531 40.551883H115.120102z"  horiz-adv-x="1181" />

    
    <glyph glyph-name="zyuanzhe" unicode="&#58925;" d="M511.999606 896C229.178901 896 0 666.821099 0 384.000394c0-124.652212 44.58335-238.867509 118.586986-327.600979A510.109146 510.109146 0 0 1 511.999606-127.999212c139.815277 0 266.397334 56.00488 358.754186 146.746964h12.248606v12.484913A510.266684 510.266684 0 0 1 1023.999212 384.000394c0 282.702552-229.297054 511.999606-511.999606 511.999606z m271.635484-365.252642c-21.110138 30.483669-59.076878 48.836886-101.336538 48.836885-61.439953 0-129.575285-49.151962-166.478641-130.953745-35.918742 80.620246-102.675613 130.953745-166.360488 130.953745-42.220275 0-91.608545-15.990142-115.160526-76.87871-26.663364 14.296604-53.444882 30.916899-59.076878 44.583351 31.901514 67.702102 102.399921 105.865765 174.237404 105.865764 61.833799 0 118.390063-29.853515 166.478642-83.889166 48.088578 54.035651 104.644843 83.889166 166.478641 83.889166 65.378411 0 121.46206-26.663364 159.665108-79.635631 34.540281-48.088578 41.353814-116.184526 21.661522-185.895241a417.909832 417.909832 0 0 1-76.721172-0.196923c29.971669 57.147033 21.779676 106.968533-3.387074 143.320505z m-7.679995-274.707481c-30.4049-31.35013-57.89534-52.066421-93.105159-77.193787-50.136577-35.761203-110.158684-73.294713-166.911871-159.113724-35.170434 54.902112-76.799941 92.317467-115.711911 121.97406-78.493478 60.140261-188.218932 83.298397-244.617658 171.165407-37.218433 57.89534-53.326728 198.262001-15.281219 253.597344-25.245519-79.359939 149.858346-111.970375 190.070007-168.723563-0.669538 16.226449 3.505228 35.091665 2.756921 51.318114 24.418443-37.336587 58.328571-76.563633 87.670087-114.648527 40.723661-52.775344 92.238698-149.937115 106.417149-241.230583 57.186418 75.697173 64.118105 188.337086 161.161722 240.915507-9.412916-12.484913-9.412916-25.403057-10.4763-41.353815 32.216591 81.211014 174.355558 65.45718 204.878612 60.967338-57.580263-5.316919-71.876868-61.518722-106.85038-97.673771z"  horiz-adv-x="1024" />

    
    <glyph glyph-name="ryzhinan" unicode="&#58926;" d="M1209.539527 781.272748c18.747055 0 33.87073-14.65106 33.870731-32.767962 0-18.116902-15.123675-32.767962-33.870731-32.767963h-84.676825v-81.95929c0-18.116902-15.202444-32.767962-33.910115-32.767962a33.319346 33.319346 0 0 0-33.87073 32.767962v81.919906h-84.71621a33.319346 33.319346 0 0 0-33.87073 32.807347c0 18.116902 15.123675 32.767962 33.87073 32.767962h84.676826V863.192653c0 18.116902 15.163059 32.807347 33.910114 32.807347 18.707671 0 33.87073-14.690445 33.870731-32.767962v-81.95929h84.716209z m-303.851957-713.175793v-90.742049l-247.413868 145.053371 247.413868 140.051531v-80.029446h265.924617s31.743963-3.544611 31.743963-44.307641v-31.428887s0.748307-35.721805-41.353798-38.596879h-256.314782z m232.093271-132.214001c17.959364 0 32.49227-14.296599 32.49227-31.940886a32.216578 32.216578 0 0 0-32.49227-31.940886H32.531655A32.216578 32.216578 0 0 0 0-96.057932c0 17.644287 14.532906 31.901502 32.531655 31.901501H86.646054V795.569347c0 35.209806 29.183966 63.842388 65.023925 63.842388h666.386923c35.839959 0 65.06331-28.632582 65.06331-63.842388v-283.214443h162.54012c35.839959 0 64.98454-28.671967 64.98454-63.881772v-188.573321h-64.98454v188.573321h-162.54012v-110.079873L566.9015 147.693171l316.258096-210.19545h162.500736V30.327153H1110.644872v-94.444199h27.096584zM306.136262 589.272969a32.216578 32.216578 0 0 1-32.531655-31.901501c0-17.683672 14.572291-31.980271 32.531655-31.980271h349.459289a32.216578 32.216578 0 0 1 32.49227 31.940886 32.216578 32.216578 0 0 1-32.49227 31.940886H306.136262z m-32.531655-191.605932c0-17.683672 14.572291-31.940886 32.531655-31.940887h349.459289a32.216578 32.216578 0 0 1 32.49227 31.901502 32.216578 32.216578 0 0 1-32.49227 31.980271H306.136262a32.216578 32.216578 0 0 1-32.531655-31.940886zM1058.302779-89.795786v-3.938457h0.078769v3.938457h-0.078769z"  horiz-adv-x="1260" />

    
    <glyph glyph-name="mzyuyue" unicode="&#58927;" d="M614.4 544.925538h90.033231c47.222154 0 85.504-39.305846 85.504-87.788307v-263.325539c0-48.443077-38.281846-87.748923-85.504-87.748923H319.566769c-47.222154 0-85.504 39.305846-85.504 87.748923v263.325539c0 48.443077 38.281846 87.788308 85.504 87.788307h119.296V606.523077c0 17.408 9.806769 26.112 29.380923 26.112h116.736c19.613538 0 29.420308-8.664615 29.420308-26.112v-61.636923zM723.495385-128H31.350154A31.783385 31.783385 0 0 0 0-96.649846V595.495385A300.504615 300.504615 0 0 0 300.504615 896h692.145231c17.211077-0.236308 31.113846-14.139077 31.350154-31.350154V172.504615A300.504615 300.504615 0 0 0 723.495385-128zM62.700308-65.299692H723.495385a237.804308 237.804308 0 0 1 237.804307 237.804307V833.299692H300.504615A237.804308 237.804308 0 0 1 62.700308 595.495385v-660.795077z m577.575384 357.888V358.4h-96.216615v98.737231h-64.118154v-98.737231H383.724308v-65.811692h96.216615v-98.776616h64.118154V292.627692h96.216615z"  horiz-adv-x="1024" />

    
    <glyph glyph-name="jzzhinan" unicode="&#58929;" d="M512 896c282.308923 0 512-229.691077 512-512 0-282.348308-229.691077-512-512-512C229.612308-128 0 101.651692 0 384 0 666.308923 229.651692 896 512 896z m0-959.881846c246.941538 0 447.842462 200.900923 447.842462 447.881846 0 246.941538-200.861538 447.803077-447.842462 447.803077C265.058462 831.803077 64.118154 630.941538 64.118154 384S265.058462-63.881846 512-63.881846z m-114.491077 464.935384c0 5.277538 0.551385 10.436923 1.339077 15.478154-69.080615 76.012308-116.381538 143.556923-125.243077 180.657231a20.873846 20.873846 0 0 0 25.166769 25.206154c37.100308-8.822154 104.605538-56.162462 180.617846-125.321846a97.28 97.28 0 0 0 15.43877 1.339077 97.437538 97.437538 0 0 0 97.319384-97.35877c0-5.238154-0.512-10.397538-1.339077-15.438769 67.150769-73.846154 113.664-139.697231 124.376616-177.427692a20.992 20.992 0 0 0-19.298462-28.987077h-0.196923a20.873846 20.873846 0 0 0-4.804923 0.551385c-37.139692 8.861538-104.605538 56.162462-180.539077 125.282461a96.492308 96.492308 0 0 0-15.517538-1.339077 97.476923 97.476923 0 0 0-97.319385 97.358769z m250.171077-152.891076c-17.447385 26.072615-42.850462 58.525538-74.909538 94.838153a97.398154 97.398154 0 0 0-19.889231-19.928615c36.312615-32.059077 68.765538-57.462154 94.798769-74.909538z m-97.28 152.891076c0 30.641231-24.930462 55.571692-55.532308 55.571693a55.611077 55.611077 0 0 1 0-111.143385c30.601846 0 55.532308 24.930462 55.532308 55.571692z m-76.366769 350.129231c-176.836923-10.476308-318.739692-152.418462-329.216-329.255384h33.988923a20.873846 20.873846 0 0 0 0-41.747693h-33.949539a351.113846 351.113846 0 0 1 80.935385-204.091077 20.873846 20.873846 0 1 0-32.019692-26.781538 392.900923 392.900923 0 0 0-91.372308 251.785846C102.4 617.511385 278.449231 793.6 494.907077 793.6c52.381538 0 103.227077-10.161231 151.118769-30.129231a20.873846 20.873846 0 0 0-16.108308-38.596923 346.899692 346.899692 0 0 1-114.09723 26.269539v-33.949539a20.873846 20.873846 0 0 0-41.747693 0v33.949539z m319.212307-94.916923a392.664615 392.664615 0 0 0 94.208-255.212308c0-216.418462-176.049231-392.507077-392.546461-392.507076a393.452308 393.452308 0 0 0-183.256615 45.331692 20.873846 20.873846 0 0 0 19.534769 36.942769c43.953231-23.276308 92.947692-36.903385 142.848-39.857231v33.988923a20.873846 20.873846 0 0 0 41.747692 0v-33.988923c176.836923 10.436923 318.779077 152.418462 329.255385 329.255385h-33.988923a20.873846 20.873846 0 1 0 0 41.747692h33.949538a350.601846 350.601846 0 0 1-83.495385 207.084308 20.873846 20.873846 0 0 0 31.744 27.175385z"  horiz-adv-x="1024" />

    
    <glyph glyph-name="tcwenjuan" unicode="&#58930;" d="M1013.996308 567.808l-66.678154 55.453538c-13.154462 11.027692-28.041846 16.108308-39.305846 3.190154L534.843077 231.384615l-86.331077-99.879384 111.655385-98.107077L600.615385 80.738462l43.165538 49.033846 2.441846 2.756923c1.811692 2.126769 3.032615 3.426462 3.032616 3.426461l366.434461 395.106462c11.303385 12.839385 11.500308 25.757538-1.654154 36.745846z m-607.783385-480.886154s-76.918154-138.003692-91.529846-189.794461c-7.837538-28.002462-0.748308-28.908308 24.812308-20.401231 58.840615 19.534769 176.994462 114.333538 176.994461 114.333538l-110.276923 95.82277zM742.203077 530.510769c70.104615 80.187077 52.578462 61.124923 52.578461 61.124923V845.075692C794.781538 878.355692 778.830769 896 744.881231 896H52.105846C20.361846 896 0 880.443077 0 847.241846v-897.378461c0-33.240615 20.361846-48.797538 52.105846-48.797539h221.971692l102.006154 234.889846L742.203077 530.510769zM136.585846 798.523077h521.728c20.598154 0 37.297231-16.305231 37.297231-36.391385s-16.699077-36.391385-37.297231-36.391384H136.585846a36.864 36.864 0 0 0-37.257846 36.391384c0 20.086154 16.659692 36.391385 37.257846 36.391385z m0-169.865846h521.728c20.598154 0 37.297231-16.305231 37.297231-36.391385s-16.699077-36.430769-37.297231-36.430769H136.585846a36.864 36.864 0 0 0-37.257846 36.430769c0 20.086154 16.659692 36.391385 37.257846 36.391385z m0-242.688a36.824615 36.824615 0 0 0-37.257846 36.391384c0 20.086154 16.659692 36.430769 37.257846 36.43077h322.953846c20.598154 0 37.297231-16.305231 37.297231-36.43077 0-20.086154-16.699077-36.391385-37.257846-36.391384H136.585846z m362.220308-484.903385h121.777231l45.607384-1.496615 78.690462 1.614769c33.949538 0 49.900308 23.748923 49.900307 56.989538V226.067692l-227.76123-257.732923s-59.155692-62.424615-68.214154-67.268923z"  horiz-adv-x="1024" />

    
    <glyph glyph-name="cjwenti1" unicode="&#58931;" d="M973.784615 896c53.563077 0 97.398154-44.819692 92.514462-99.643077v-418.422154c-58.446769 99.643077-170.417231 169.353846-292.155077 169.353846-189.873231 0-340.795077-154.387692-340.795077-348.672 0-34.894769 4.844308-69.750154 14.572308-99.643077H350.601846c-185.028923-124.534154-277.543385-184.32-277.543384-184.32s19.495385 64.787692 58.446769 184.32h-34.067693c-53.563077 0-97.398154 44.819692-97.398153 99.643077V796.356923C0 851.180308 43.835077 896 97.398154 896h876.386461zM350.562462 417.792c19.495385 0 38.951385 19.928615 38.951384 39.857231s-19.456 39.857231-38.951384 39.857231h-214.252308c-19.456 0-38.912-19.928615-38.912-39.857231s19.456-39.857231 38.951384-39.857231H350.523077z m584.270769 249.068308c19.495385 0 38.990769 19.928615 38.990769 39.85723s-19.495385 39.857231-38.990769 39.857231H136.349538c-19.495385 0-38.990769-19.928615-38.990769-39.857231s19.495385-39.857231 38.990769-39.85723h798.483693zM810.653538-128C646.419692-128 512 6.419692 512 170.653538c0 164.273231 134.419692 298.692923 298.653538 298.692924 164.273231 0 298.692923-134.419692 298.692924-298.692924 0-164.233846-134.419692-298.653538-298.692924-298.653538z m24.891077 204.091077c0 19.928615 0 34.855385 5.001847 44.780308 4.962462 9.964308 14.926769 19.928615 29.853538 34.855384 29.853538 24.891077 49.782154 44.819692 59.746462 59.746462 9.924923 14.926769 14.926769 29.853538 14.926769 49.782154 0 29.853538-14.966154 59.707077-39.817846 79.635692-24.891077 19.889231-59.746462 34.855385-104.52677 34.855385-39.857231 0-74.673231-9.964308-99.564307-34.855385-24.891077-24.891077-39.817846-49.782154-39.817846-84.637539l69.710769-9.924923c4.923077 24.851692 14.887385 39.778462 24.851692 49.74277 14.966154 9.964308 29.853538 14.966154 49.782154 14.966153 19.889231 0 34.855385-5.001846 49.782154-14.966153 14.926769-9.924923 19.889231-24.851692 19.889231-39.778462 0-9.964308-4.962462-19.928615-9.924924-29.892923-5.001846-4.962462-19.928615-19.928615-39.85723-34.855385-24.851692-19.889231-39.778462-34.816-44.780308-49.782153-9.964308-14.926769-9.964308-34.816-9.964308-54.744616v-19.889231h64.708923v4.962462z m-69.710769-104.526769h74.712616v74.67323h-74.673231v-74.67323z"  horiz-adv-x="1142" />

    
    <glyph glyph-name="cyzhinan1" unicode="&#58932;" d="M1175.080172 785.92c17.565538 0 31.783385-14.060308 31.783385-31.428923 0-17.408-14.178462-31.468308-31.783385-31.468308H1095.680788v-78.611692c0-17.368615-14.178462-31.468308-31.783385-31.468308a31.586462 31.586462 0 0 0-31.744 31.468308V723.022769H952.714634a31.586462 31.586462 0 0 0-31.744 31.468308c0 17.329231 14.178462 31.428923 31.744 31.428923h79.438769V864.531692c0 17.368615 14.178462 31.468308 31.744 31.468308 17.565538 0 31.783385-14.099692 31.783385-31.468308v-78.611692h79.399384zM937.354634 168.172308v87.04l231.975384-139.145846-231.975384-134.340924v76.8h-249.304616s-29.735385 3.387077-29.735384 42.456616v30.168615s-0.708923 34.264615 38.754461 37.021539H937.354634z m164.903384-232.290462c17.408 0 31.507692-14.296615 31.507693-31.940923a31.704615 31.704615 0 0 0-31.507693-31.940923H31.50848a31.704615 31.704615 0 0 0-31.507692 31.940923c0 17.644308 14.060308 31.901538 31.507692 31.901539h52.460308V795.569231c0 35.209846 28.278154 63.842462 63.015384 63.842461h645.592616c34.697846 0 62.976-28.632615 62.976-63.842461v-283.214769h157.459692c34.697846 0 62.976-28.672 62.976-63.881847v-211.180307l-63.015385 37.572923 0.039385 173.607384h-157.459692v-238.00123h-260.568616v-192.118154h260.568616v-80.896h157.420307l0.315077 0.196923L1075.98848-21.661538v-42.417231h26.230154zM296.566942 589.272615c-17.408 0-31.507692-14.296615-31.507693-31.901538 0-17.683692 14.099692-31.980308 31.507693-31.980308h338.550153c17.408 0 31.468308 14.296615 31.468308 31.940923a31.704615 31.704615 0 0 1-31.507692 31.940923H296.566942z m-31.507693-191.606153c0-17.683692 14.099692-31.940923 31.507693-31.940924h338.550153c17.408 0 31.468308 14.257231 31.468308 31.901539a31.704615 31.704615 0 0 1-31.507692 31.940923H296.566942c-17.408 0-31.507692-14.257231-31.507693-31.901538z m749.292308-464.147693v3.938462h-0.039385v-3.938462h0.039385z"  horiz-adv-x="1220" />

    
    <glyph glyph-name="hyzhibo1" unicode="&#58933;" d="M947.554462 379.431385l167.424 74.555077a36.352 36.352 0 0 0 34.658461-2.756924 36.627692 36.627692 0 0 0 16.580923-30.64123v-408.14277a36.627692 36.627692 0 0 0-16.541538-30.72 36.352 36.352 0 0 0-34.658462-2.756923l-167.463384 74.594462v-108.425846A73.019077 73.019077 0 0 0 874.692923-128H72.861538A73.019077 73.019077 0 0 0 0-54.862769V530.274462C0 570.683077 32.649846 603.411692 72.861538 603.411692h801.792c40.251077 0 72.900923-32.728615 72.900924-73.13723v-150.843077zM564.893538 640a127.488 127.488 0 0 0-110.473846 64 128.393846 128.393846 0 0 0 0 128A127.488 127.488 0 0 0 564.893538 896a127.763692 127.763692 0 0 0 127.527385-128c0-70.695385-57.107692-128-127.527385-128z m-255.133538 0c-32.531692 0-62.621538 17.408-78.887385 45.686154a91.687385 91.687385 0 0 0 0 91.451077 91.057231 91.057231 0 0 0 170.023385-45.686154A91.254154 91.254154 0 0 0 309.76 640z m54.665846-548.588308c0-12.996923 6.931692-25.048615 18.156308-31.586461a36.352 36.352 0 0 1 36.391384-0.157539l255.094154 146.313846a36.627692 36.627692 0 0 1 0 63.488l-255.094154 146.274462a36.352 36.352 0 0 1-36.391384-0.118154 36.627692 36.627692 0 0 1-18.116923-31.625846v-292.588308z m72.900923 229.612308l145.211077-83.298462-145.211077-83.298461v166.596923z"  horiz-adv-x="1181" />

    
    <glyph glyph-name="jzzhinan1" unicode="&#58934;" d="M512 896c282.308923 0 512-229.691077 512-512 0-282.348308-229.691077-512-512-512C229.612308-128 0 101.651692 0 384 0 666.308923 229.651692 896 512 896z m0-959.881846c246.941538 0 447.842462 200.900923 447.842462 447.881846 0 246.941538-200.861538 447.803077-447.842462 447.803077C265.058462 831.803077 64.118154 630.941538 64.118154 384S265.058462-63.881846 512-63.881846z m-114.491077 464.935384c0 5.277538 0.551385 10.436923 1.339077 15.478154-69.080615 76.012308-116.381538 143.556923-125.243077 180.657231a20.873846 20.873846 0 0 0 25.166769 25.206154c37.100308-8.822154 104.605538-56.162462 180.617846-125.321846a97.28 97.28 0 0 0 15.43877 1.339077 97.437538 97.437538 0 0 0 97.319384-97.35877c0-5.238154-0.512-10.397538-1.339077-15.438769 67.150769-73.846154 113.664-139.697231 124.376616-177.427692a20.992 20.992 0 0 0-19.298462-28.987077h-0.196923a20.873846 20.873846 0 0 0-4.804923 0.551385c-37.139692 8.861538-104.605538 56.162462-180.539077 125.282461a96.492308 96.492308 0 0 0-15.517538-1.339077 97.476923 97.476923 0 0 0-97.319385 97.358769z m250.171077-152.891076c-17.447385 26.072615-42.850462 58.525538-74.909538 94.838153a97.398154 97.398154 0 0 0-19.889231-19.928615c36.312615-32.059077 68.765538-57.462154 94.798769-74.909538z m-97.28 152.891076c0 30.641231-24.930462 55.571692-55.532308 55.571693a55.611077 55.611077 0 0 1 0-111.143385c30.601846 0 55.532308 24.930462 55.532308 55.571692z m-76.366769 350.129231c-176.836923-10.476308-318.739692-152.418462-329.216-329.255384h33.988923a20.873846 20.873846 0 0 0 0-41.747693h-33.949539a351.113846 351.113846 0 0 1 80.935385-204.091077 20.873846 20.873846 0 1 0-32.019692-26.781538 392.900923 392.900923 0 0 0-91.372308 251.785846C102.4 617.511385 278.449231 793.6 494.907077 793.6c52.381538 0 103.227077-10.161231 151.118769-30.129231a20.873846 20.873846 0 0 0-16.108308-38.596923 346.899692 346.899692 0 0 1-114.09723 26.269539v-33.949539a20.873846 20.873846 0 0 0-41.747693 0v33.949539z m319.212307-94.916923a392.664615 392.664615 0 0 0 94.208-255.212308c0-216.418462-176.049231-392.507077-392.546461-392.507076a393.452308 393.452308 0 0 0-183.256615 45.331692 20.873846 20.873846 0 0 0 19.534769 36.942769c43.953231-23.276308 92.947692-36.903385 142.848-39.857231v33.988923a20.873846 20.873846 0 0 0 41.747692 0v-33.988923c176.836923 10.436923 318.779077 152.418462 329.255385 329.255385h-33.988923a20.873846 20.873846 0 1 0 0 41.747692h33.949538a350.601846 350.601846 0 0 1-83.495385 207.084308 20.873846 20.873846 0 0 0 31.744 27.175385z"  horiz-adv-x="1024" />

    
    <glyph glyph-name="lcyanjiu1" unicode="&#58935;" d="M792.494026 4.449142v34.410044l33.032068 31.61472v-66.024764h-33.032068z m214.688754 197.40499l-35.945504 33.740741h85.434549v-78.623407l-29.882407 27.205195-109.450712-88.111761-60.827824 49.489045-97.048923-75.080039v32.677731l97.048923 75.040668 59.174252-49.489045 91.497646 73.150872z m-22.086996-197.40499v124.84468L1023.639758 169.530738v-165.081596h-38.583345z m-126.576993 101.064741l19.17356 19.960975 19.17356-19.960975v-101.064741h-38.34712v101.064741z m62.953845-25.86659l8.504084-7.322961 29.803665 31.417866v-99.293056h-38.307749v75.198151z m-12.598644 250.24055a209.609926 209.609926 0 0 1-209.058735-209.84615 210.161116 210.161116 0 1 1 209.058735 209.84615z m0 37.79593a247.366484 247.366484 0 0 0 246.854665-247.64208 247.64208 247.64208 0 1 0-246.854665 247.64208z m-251.067335-122.324951a294.572026 294.572026 0 0 1-32.244653-83.859719H83.466011v-154.097154a37.008514 37.008514 0 0 0-12.519902-26.811488 36.575436 36.575436 0 0 0-28.071351-8.976533A40.94559 40.94559 0 0 0 0 7.44132V858.20407C2.440987 879.149315 19.68538 895.212585 40.591253 896h4.724492c20.70902-0.275595 37.480963-16.929427 38.110895-37.756559v-134.766111c9.606465 6.22058 20.787761 9.606465 32.244653 9.803319h104.253772a128.624273 128.624273 0 0 0 83.387269-32.992696 109.84442 109.84442 0 0 0 37.559705-80.237609v-35.23683A114.568911 114.568911 0 0 0 326.3836 538.907208h513.788416c83.42664-0.472449 150.711269-68.780718 150.396303-152.679807v-3.897705a300.359527 300.359527 0 0 1-76.458016 10.354509h-3.897705c-0.275595 18.11055-7.874152 35.433684-21.102727 47.756732a65.946023 65.946023 0 0 1-48.937855 17.677471H81.182507v-212.798957h576.62415zM115.120102 654.972208a34.016337 34.016337 0 0 1-31.693462-33.268292v-42.205455c0-19.016077 8.897792-40.276287 32.244653-40.276287H218.507717a45.670081 45.670081 0 0 1 46.142531 40.276287v34.921864a45.945677 45.945677 0 0 1-46.142531 40.551883H115.120102z"  horiz-adv-x="1181" />

    
    <glyph glyph-name="mzyuyue1" unicode="&#58936;" d="M614.4 544.925538h90.033231c47.222154 0 85.504-39.305846 85.504-87.788307v-263.325539c0-48.443077-38.281846-87.748923-85.504-87.748923H319.566769c-47.222154 0-85.504 39.305846-85.504 87.748923v263.325539c0 48.443077 38.281846 87.788308 85.504 87.788307h119.296V606.523077c0 17.408 9.806769 26.112 29.380923 26.112h116.736c19.613538 0 29.420308-8.664615 29.420308-26.112v-61.636923zM723.495385-128H31.350154A31.783385 31.783385 0 0 0 0-96.649846V595.495385A300.504615 300.504615 0 0 0 300.504615 896h692.145231c17.211077-0.236308 31.113846-14.139077 31.350154-31.350154V172.504615A300.504615 300.504615 0 0 0 723.495385-128zM62.700308-65.299692H723.495385a237.804308 237.804308 0 0 1 237.804307 237.804307V833.299692H300.504615A237.804308 237.804308 0 0 1 62.700308 595.495385v-660.795077z m577.575384 357.888V358.4h-96.216615v98.737231h-64.118154v-98.737231H383.724308v-65.811692h96.216615v-98.776616h64.118154V292.627692h96.216615z"  horiz-adv-x="1024" />

    
    <glyph glyph-name="ryzhinan1" unicode="&#58937;" d="M1209.539527 781.272748c18.747055 0 33.87073-14.65106 33.870731-32.767962 0-18.116902-15.123675-32.767962-33.870731-32.767963h-84.676825v-81.95929c0-18.116902-15.202444-32.767962-33.910115-32.767962a33.319346 33.319346 0 0 0-33.87073 32.767962v81.919906h-84.71621a33.319346 33.319346 0 0 0-33.87073 32.807347c0 18.116902 15.123675 32.767962 33.87073 32.767962h84.676826V863.192653c0 18.116902 15.163059 32.807347 33.910114 32.807347 18.707671 0 33.87073-14.690445 33.870731-32.767962v-81.95929h84.716209z m-303.851957-713.175793v-90.742049l-247.413868 145.053371 247.413868 140.051531v-80.029446h265.924617s31.743963-3.544611 31.743963-44.307641v-31.428887s0.748307-35.721805-41.353798-38.596879h-256.314782z m232.093271-132.214001c17.959364 0 32.49227-14.296599 32.49227-31.940886a32.216578 32.216578 0 0 0-32.49227-31.940886H32.531655A32.216578 32.216578 0 0 0 0-96.057932c0 17.644287 14.532906 31.901502 32.531655 31.901501H86.646054V795.569347c0 35.209806 29.183966 63.842388 65.023925 63.842388h666.386923c35.839959 0 65.06331-28.632582 65.06331-63.842388v-283.214443h162.54012c35.839959 0 64.98454-28.671967 64.98454-63.881772v-188.573321h-64.98454v188.573321h-162.54012v-110.079873L566.9015 147.693171l316.258096-210.19545h162.500736V30.327153H1110.644872v-94.444199h27.096584zM306.136262 589.272969a32.216578 32.216578 0 0 1-32.531655-31.901501c0-17.683672 14.572291-31.980271 32.531655-31.980271h349.459289a32.216578 32.216578 0 0 1 32.49227 31.940886 32.216578 32.216578 0 0 1-32.49227 31.940886H306.136262z m-32.531655-191.605932c0-17.683672 14.572291-31.940886 32.531655-31.940887h349.459289a32.216578 32.216578 0 0 1 32.49227 31.901502 32.216578 32.216578 0 0 1-32.49227 31.980271H306.136262a32.216578 32.216578 0 0 1-32.531655-31.940886zM1058.302779-89.795786v-3.938457h0.078769v3.938457h-0.078769z"  horiz-adv-x="1260" />

    
    <glyph glyph-name="tcwenjuan1" unicode="&#58938;" d="M1013.996308 567.808l-66.678154 55.453538c-13.154462 11.027692-28.041846 16.108308-39.305846 3.190154L534.843077 231.384615l-86.331077-99.879384 111.655385-98.107077L600.615385 80.738462l43.165538 49.033846 2.441846 2.756923c1.811692 2.126769 3.032615 3.426462 3.032616 3.426461l366.434461 395.106462c11.303385 12.839385 11.500308 25.757538-1.654154 36.745846z m-607.783385-480.886154s-76.918154-138.003692-91.529846-189.794461c-7.837538-28.002462-0.748308-28.908308 24.812308-20.401231 58.840615 19.534769 176.994462 114.333538 176.994461 114.333538l-110.276923 95.82277zM742.203077 530.510769c70.104615 80.187077 52.578462 61.124923 52.578461 61.124923V845.075692C794.781538 878.355692 778.830769 896 744.881231 896H52.105846C20.361846 896 0 880.443077 0 847.241846v-897.378461c0-33.240615 20.361846-48.797538 52.105846-48.797539h221.971692l102.006154 234.889846L742.203077 530.510769zM136.585846 798.523077h521.728c20.598154 0 37.297231-16.305231 37.297231-36.391385s-16.699077-36.391385-37.297231-36.391384H136.585846a36.864 36.864 0 0 0-37.257846 36.391384c0 20.086154 16.659692 36.391385 37.257846 36.391385z m0-169.865846h521.728c20.598154 0 37.297231-16.305231 37.297231-36.391385s-16.699077-36.430769-37.297231-36.430769H136.585846a36.864 36.864 0 0 0-37.257846 36.430769c0 20.086154 16.659692 36.391385 37.257846 36.391385z m0-242.688a36.824615 36.824615 0 0 0-37.257846 36.391384c0 20.086154 16.659692 36.430769 37.257846 36.43077h322.953846c20.598154 0 37.297231-16.305231 37.297231-36.43077 0-20.086154-16.699077-36.391385-37.257846-36.391384H136.585846z m362.220308-484.903385h121.777231l45.607384-1.496615 78.690462 1.614769c33.949538 0 49.900308 23.748923 49.900307 56.989538V226.067692l-227.76123-257.732923s-59.155692-62.424615-68.214154-67.268923z"  horiz-adv-x="1024" />

    
    <glyph glyph-name="kpshijian1" unicode="&#58939;" d="M970.121846 856.300308L81.132308 860.317538l-23.000616-13.902769-11.342769-20.086154 1.536-64.512 11.933539-18.116923 17.723076-10.988307 54.508308-1.378462L135.68-128s-13.981538 2.166154-71.719385 2.166154S0-69.041231 0-69.041231 1.536 778.515692 1.536 834.284308C1.536 892.849231 73.216 896 73.216 896l842.318769-1.378462 54.587077-38.32123zM539.175385 788.204308l211.416615-5.750154v-315.588923l-104.211692 77.469538-108.662154-77.469538 1.457231 321.378461z m107.559384-501.563077c74.318769 0 134.734769-62.621538 134.734769-139.933539 0-77.351385-60.258462-139.972923-134.695384-139.972923-74.476308 0-134.774154 62.621538-134.774154 139.972923 0 77.312 60.258462 139.933538 134.734769 139.933539z m16.738462-159.389539v-0.118154h45.528615l-0.748308 38.084924H663.630769l-0.118154 46.788923-35.918769 0.275692-0.118154-47.182769-44.898461-0.118154-0.630154-37.336616 45.371077 0.118154 0.157538-47.419077h36.036923v46.907077z m157.420307 604.16l176.167385-1.260307-3.229538-795.805539S990.641231-128 929.358769-128s-740.745846 1.378462-740.745846 1.378462V734.326154l312.989539-4.332308 1.575384-348.278154 160.374154 102.006154 151.04-103.384615 6.301538 351.074461z m-154.269538-759.21723c93.617231 0 169.511385 74.712615 169.511385 166.83323 0 92.16-75.894154 166.833231-169.511385 166.833231-93.577846 0-169.511385-74.712615-169.511385-166.833231 0-92.120615 75.933538-166.833231 169.511385-166.83323z"  horiz-adv-x="1024" />

    
    <glyph glyph-name="rjshoushu1" unicode="&#58940;" d="M890.643692 843.500308L623.891692 580.923077l80.029539-78.769231 266.752 262.577231L1024 712.231385l-266.712615-262.577231s23.236923-39.305846-53.366154-52.499692c-75.027692-12.957538-166.281846-90.663385-186.683077-210.077539-23.630769-138.043077-289.161846-317.006769-506.801231-157.538461 0 0-23.473231 29.262769 0 52.539076C33.831385 105.314462 837.316923 896 837.316923 896l53.326769-52.499692zM117.129846 82.077538c-22.567385-21.661538 0-26.269538 0-26.269538 199.522462-50.018462 312.635077 84.125538 346.702769 210.038154 43.677538 150.094769 186.761846 183.808 186.761847 183.808l-80.029539 78.769231S139.657846 103.739077 117.090462 82.077538z m299.953231 185.777231a12.996923 12.996923 0 0 0-4.411077 18.038154 13.390769 13.390769 0 0 0 18.274462 4.371692 12.996923 12.996923 0 0 0 4.450461-18.077538 13.390769 13.390769 0 0 0-18.313846-4.332308z m-164.627692-177.900307l-65.536-15.596308c-22.331077-5.277538-25.796923 20.873846-4.253539 26.033231l89.403077 21.267692c55.532308 13.154462 105.550769 59.470769 108.307692 107.008 1.378462 22.843077 25.757538 19.259077 24.418462 10.161231-1.181538-80.896-77.902769-131.190154-152.379077-148.873846z m-215.355077-165.415385h293.415384c14.729846 0 26.663385-11.736615 26.663385-26.269539a26.466462 26.466462 0 0 0-26.663385-26.269538H37.100308a26.466462 26.466462 0 0 0-26.663385 26.269538c0 14.532923 11.894154 26.269538 26.663385 26.269539z m400.108307 0h53.32677c14.729846 0 26.663385-11.736615 26.663384-26.269539a26.466462 26.466462 0 0 0-26.663384-26.269538h-53.32677a26.466462 26.466462 0 0 0-26.663384 26.269538c0 14.532923 11.933538 26.269538 26.663384 26.269539z m160.019693 0h53.366154c14.729846 0 26.663385-11.736615 26.663384-26.269539a26.466462 26.466462 0 0 0-26.663384-26.269538h-53.366154a26.466462 26.466462 0 0 0-26.663385 26.269538c0 14.532923 11.933538 26.269538 26.663385 26.269539z m160.059077 0h53.366153c14.729846 0 26.663385-11.736615 26.663385-26.269539a26.466462 26.466462 0 0 0-26.663385-26.269538h-53.366153a26.466462 26.466462 0 0 0-26.663385 26.269538c0 14.532923 11.933538 26.269538 26.663385 26.269539z m160.019692 0h53.366154c14.729846 0 26.663385-11.736615 26.663384-26.269539a26.466462 26.466462 0 0 0-26.663384-26.269538h-53.366154a26.466462 26.466462 0 0 0-26.663385 26.269538c0 14.532923 11.933538 26.269538 26.663385 26.269539z"  horiz-adv-x="1024" />

    
    <glyph glyph-name="zyuanzhe1" unicode="&#58941;" d="M511.999606 896C229.178901 896 0 666.821099 0 384.000394c0-124.652212 44.58335-238.867509 118.586986-327.600979A510.109146 510.109146 0 0 1 511.999606-127.999212c139.815277 0 266.397334 56.00488 358.754186 146.746964h12.248606v12.484913A510.266684 510.266684 0 0 1 1023.999212 384.000394c0 282.702552-229.297054 511.999606-511.999606 511.999606z m271.635484-365.252642c-21.110138 30.483669-59.076878 48.836886-101.336538 48.836885-61.439953 0-129.575285-49.151962-166.478641-130.953745-35.918742 80.620246-102.675613 130.953745-166.360488 130.953745-42.220275 0-91.608545-15.990142-115.160526-76.87871-26.663364 14.296604-53.444882 30.916899-59.076878 44.583351 31.901514 67.702102 102.399921 105.865765 174.237404 105.865764 61.833799 0 118.390063-29.853515 166.478642-83.889166 48.088578 54.035651 104.644843 83.889166 166.478641 83.889166 65.378411 0 121.46206-26.663364 159.665108-79.635631 34.540281-48.088578 41.353814-116.184526 21.661522-185.895241a417.909832 417.909832 0 0 1-76.721172-0.196923c29.971669 57.147033 21.779676 106.968533-3.387074 143.320505z m-7.679995-274.707481c-30.4049-31.35013-57.89534-52.066421-93.105159-77.193787-50.136577-35.761203-110.158684-73.294713-166.911871-159.113724-35.170434 54.902112-76.799941 92.317467-115.711911 121.97406-78.493478 60.140261-188.218932 83.298397-244.617658 171.165407-37.218433 57.89534-53.326728 198.262001-15.281219 253.597344-25.245519-79.359939 149.858346-111.970375 190.070007-168.723563-0.669538 16.226449 3.505228 35.091665 2.756921 51.318114 24.418443-37.336587 58.328571-76.563633 87.670087-114.648527 40.723661-52.775344 92.238698-149.937115 106.417149-241.230583 57.186418 75.697173 64.118105 188.337086 161.161722 240.915507-9.412916-12.484913-9.412916-25.403057-10.4763-41.353815 32.216591 81.211014 174.355558 65.45718 204.878612 60.967338-57.580263-5.316919-71.876868-61.518722-106.85038-97.673771z"  horiz-adv-x="1024" />

    
    <glyph glyph-name="hlxuanjiao1" unicode="&#58942;" d="M503.335515 670.668635c136.347493 0 246.89845-111.25987 246.89845-248.473811 0-137.174558-110.550957-248.434427-246.859066-248.434427s-246.89845 111.25987-246.898451 248.434427c0 137.213942 110.590341 248.473811 246.898451 248.473811z m-108.581756-526.170569h217.24228c173.762317 0 315.938646-17.525891 315.938645-192.430344V-128H78.775729v80.067722c0 174.865069 142.176329 192.430344 315.97803 192.430344zM271.718066 584.457005c22.685198 40.329241 58.879117 70.2611 101.610783 89.716809 40.565545 18.549876 87.038694 27.686969 133.27554 27.371897 46.276229-0.315072 92.316154-10.042926 131.936482-29.222947 40.565545-19.613244 74.593343-49.151263 95.388108-88.495903l75.381023 151.510343a483.281366 483.281366 0 0 1-65.180561 67.464834C671.89914 863.965428 588.365624 895.19696 503.886891 895.98464c-84.675653 0.748296-170.375291-28.947258-246.859066-89.795576A522.232167 522.232167 0 0 1 184.324915 735.415972c16.895747-30.404467 30.640771-53.562273 44.346412-76.641312 13.351184-22.567046 26.662985-45.055324 43.007355-74.278271zM464.34533 875.623099h53.837962v-49.938943h49.623871V771.531122h-49.623871v-49.938943H464.384714V771.531122h-49.623871V825.684156h49.623871V875.623099z"  horiz-adv-x="1024" />

    
    <glyph glyph-name="time" unicode="&#58943;" d="M512 831.960615C268.839385 831.960615 63.960615 627.160615 63.960615 384c0-243.239385 204.8-448.039385 448.039385-448.039385 243.239385 0 448.039385 204.8 448.039385 448.039385A445.203692 445.203692 0 0 1 512 832.039385zM512 896C799.980308 896 1024 665.6 1024 384S793.6-128 512-128 0 102.4 0 384 230.4 896 512 896z m321.614769-630.153846H472.615385V704.669538C472.615385 725.070769 485.769846 738.461538 505.462154 738.461538c19.692308 0 32.768-13.469538 32.768-33.792v-371.318153h295.384615c19.692308 0 32.846769-13.469538 32.846769-33.713231 0-20.322462-13.154462-33.792-32.846769-33.792z"  horiz-adv-x="1024" />

    
    <glyph glyph-name="see" unicode="&#58944;" d="M1586.22079397 421.22717286c4.15283203-5.33935547 6.45172119-11.86523438 6.4517212-18.68774413v-37.07885744c0-6.82250977-2.22473145-13.34838867-6.4517212-18.68774414C1418.99514701 134.83007812000005 1178.1308892 13.211425780000013 925.03060843 13.211425780000013 672.37527397 13.211425780000013 431.51101615 134.60760498000002 264.28536917 346.17956542A30.18218994 30.18218994 0 0 0 257.83364799 364.86730957v38.19122314c0 6.82250977 2.22473145 13.34838867 6.45172118 18.68774414C431.51101615 633.39239502 672.37527397 754.78857422 925.03060843 754.78857422c253.02612305 0 494.03869629-121.61865234 661.19018555-333.56140137z m-51.61376953-45.16204835v15.86975098C1378.949981 584.9674072299999 1157.29257132 695.46240234 925.10476615 695.46240234 693.28774954 695.38824463 471.7786553 585.1157226600001 315.97329642 392.52813721v-17.05627442c155.73120117-192.51342773 377.24029541-302.78594971 609.13146973-302.78594971 232.18780518 0 453.84521484 110.4208374 609.57641602 303.37921143zM925.25308159 606.47314453a222.69561769 222.69561769 0 0 0 213.94500731-283.80157471 28.92150879 28.92150879 0 0 0-55.61828613 15.86975098A164.8526001 164.8526001 0 0 1 925.25308159 548.63012695c-90.76904297 0-164.63012695-73.86108398-164.63012697-164.63012695a164.8526001 164.8526001 0 0 1 235.82153322-148.53790283 28.92150879 28.92150879 0 0 0 25.06530761-52.13287353A222.69561769 222.69561769 0 0 0 702.77993704 384C702.77993704 506.73101807 802.59622123 606.47314453 925.25308159 606.47314453zM785.68826225 448.22058106A132.14904786 132.14904786 0 0 0 908.3451226 532.31542969a16.90795898 16.90795898 0 0 0 0-33.89007568c-40.04516602 0-76.60491943-25.06530762-90.99151613-62.36663819-4.37530518-11.19781494-6.52587891-22.98889161-6.5258789-35.15075684a16.90795898 16.90795898 0 0 0-33.89007568 0c0 16.31469727 2.96630859 32.18444825 8.75061036 47.31262208z"  horiz-adv-x="1843" />

    
    <glyph glyph-name="cha" unicode="&#59013;" d="M594.31452755 387.63871067l385.493596 385.1523c23.321879 23.321879 23.321879 60.978181 0 84.186295a59.328585 59.328585 0 0 1-84.129412 0L510.07135055 471.82500567 124.40710655 857.14795367a59.328585 59.328585 0 0 1-84.07253 0c-23.321879-23.321879-23.321879-60.978181 0-84.129412l385.493596-385.1523-385.493596-385.322948a59.328585 59.328585 0 0 1 42.093148-101.478615c15.244545 0 30.375325 5.688263 42.036265 17.34920199l385.607361 385.20918301 385.66424301-385.322948c11.604057-11.66094 26.734837-17.406085 41.97938299-17.406085a59.328585 59.328585 0 0 1 42.093147 101.53549799L594.31452755 387.63871067z"  horiz-adv-x="1024" />

    
    <glyph glyph-name="huanzhe" unicode="&#58946;" d="M475.084048 896C305.432346 896 169.678648 763.85706 169.678648 598.732277c0-109.023315 61.113415-204.789222 152.729646-257.603284C135.780643 278.291037 0.026946 106.537551 0.026946-94.964265c0-19.832219 13.580759-33.035735 33.951897-33.035735 20.317246 0 33.951897 13.203516 33.951897 33.035735 0 217.992737 183.232461 396.374928 407.153308 396.374928 169.651703 0 305.4054 132.089048 305.4054 297.267722C780.489448 763.85706 644.735751 896 475.084048 896z m0-528.463976c-132.358507 0-237.555497 102.394611-237.555497 231.196253s105.19699 231.196253 237.555497 231.196253c132.304616 0 237.501605-102.394611 237.501605-231.196253s-105.19699-231.196253-237.501605-231.196253z m512.350298-132.142939c-50.873954 52.814062-135.699805 59.442766-190.022841 9.916109l-20.317247-19.832219-20.371138 19.832219c-54.323036 49.580548-142.544077 42.951845-190.022841-9.916109-50.927846-52.814062-44.137466-138.717752 10.185569-184.957003l203.6036-175.094784 203.549708 175.094784c50.927846 46.239251 54.323036 132.089048 3.39519 184.957003zM882.237356 53.669596h-67.849903v-66.07147h-67.849902v66.07147h-67.903795v66.07147h67.903795v66.07147h67.903794v-66.07147h67.796011v-66.07147z"  horiz-adv-x="1024" />

    
    <glyph glyph-name="tuichu" unicode="&#58947;" d="M732.997818 680.494545a39.191273 39.191273 0 1 0-4.608 69.259637 38.539636 38.539636 0 0 0 40.308364 0l0.139636 0.279273A465.733818 465.733818 0 0 0 977.454545 361.332364c0-257.396364-208.384-466.059636-465.454545-466.059637-257.024 0-465.454545 208.663273-465.454545 466.059637C46.545455 523.636364 129.396364 666.530909 255.162182 750.033455l0.093091-0.279273a38.632727 38.632727 0 0 0 49.989818-17.780364 39.284364 39.284364 0 0 0-14.289455-51.479273 388.189091 388.189091 0 0 1-166.818909-319.162181c0-214.481455 173.661091-388.421818 387.863273-388.421819 214.248727 0 387.863273 173.847273 387.863273 388.421819A388.049455 388.049455 0 0 1 733.090909 680.494545zM512 872.727273c21.410909 0 38.772364-17.501091 38.772364-39.098182v-469.224727a38.958545 38.958545 0 0 0-38.772364-38.446546 38.958545 38.958545 0 0 0-38.772364 38.446546V833.582545C473.227636 855.272727 490.589091 872.727273 512 872.727273z"  horiz-adv-x="1024" />

    
    <glyph glyph-name="mima" unicode="&#58948;" d="M804.819478 530.031304h-32.545391V657.229913C772.274087 810.073043 664.264348 873.73913 510.797913 873.73913c-154.045217 0-259.116522-66.159304-259.116522-216.553739V530.031304h-32.500869C147.411478 530.031304 89.043478 470.238609 89.043478 396.733217v-369.17426C89.043478-45.990957 147.366957-105.73913 219.180522-105.73913h585.638956C876.633043-105.73913 934.956522-45.990957 934.956522 27.558957v369.17426c0 73.505391-58.368 133.298087-130.137044 133.298087zM316.772174 657.229913c0 113.530435 75.776 149.860174 194.025739 149.860174 116.958609 0 196.385391-34.370783 196.385391-149.904696V530.031304h-390.455652V657.229913z m553.093565-629.670956c0-36.774957-29.161739-66.649043-65.046261-66.649044H219.180522c-35.884522 0-65.090783 29.874087-65.090783 66.649044v369.17426c0 36.730435 29.206261 66.649043 65.090783 66.649044h585.638956c35.884522 0 65.046261-29.918609 65.046261-66.649044v-369.17426zM512 330.128696c-35.884522 0-65.001739-29.874087-65.001739-66.693566a66.960696 66.960696 0 0 1 32.500869-57.700173v-78.269218c0-18.387478 14.558609-33.302261 32.50087-33.302261 18.031304 0 32.545391 14.914783 32.545391 33.302261v78.269218c20.21287 12.02087 32.589913 33.970087 32.545392 57.700173 0 36.819478-29.117217 66.693565-65.090783 66.693566z"  horiz-adv-x="1024" />

    
    <glyph glyph-name="ziliao" unicode="&#58949;" d="M300.815059 367.917176a164.382118 164.382118 0 0 0-81.79953 142.034824 164.442353 164.442353 0 0 0 164.321883 164.261647A164.442353 164.442353 0 0 0 547.538824 509.952c0-45.116235-18.251294-86.016-47.766589-115.651765 121.313882-24.756706 212.028235-120.651294 212.028236-234.797176 0-18.130824-16.685176-32.888471-37.345883-32.888471-20.600471 0-37.345882 14.757647-37.345882 32.888471 0 96.617412-89.328941 175.164235-199.077647 175.164235-109.808941 0-199.077647-78.546824-199.077647-175.164235 0-18.130824-16.745412-32.888471-37.345883-32.888471-20.660706 0-37.345882 14.757647-37.345882 32.888471 0 88.847059 54.934588 166.671059 136.493177 208.414117z m787.275294-460.318117H116.615529C52.284235-92.461176 0-42.104471 0 19.576471V726.437647C0 788.239059 52.284235 838.475294 116.615529 838.475294h971.474824c64.331294 0 116.615529-50.236235 116.615529-112.037647v-706.800941c0-61.741176-52.284235-112.037647-116.615529-112.037647zM116.615529 769.987765c-24.997647 0-45.357176-19.516235-45.357176-43.550118v-706.800941c0-23.973647 20.359529-43.550118 45.357176-43.550118h971.474824c24.997647 0 45.357176 19.576471 45.357176 43.550118V726.437647c0 24.033882-20.359529 43.550118-45.357176 43.550118H116.615529z m266.721883-167.634824c-50.959059 0-92.461176-41.441882-92.461177-92.400941 0-50.959059 41.502118-92.400941 92.461177-92.400941s92.400941 41.441882 92.400941 92.400941c0 50.959059-41.441882 92.400941-92.400941 92.400941z m676.924235-37.647059h-258.710588c-19.275294 0-34.936471 12.288-34.936471 27.407059 0 15.058824 15.661176 27.346824 34.936471 27.346824h258.710588c19.275294 0 34.936471-12.227765 34.936471-27.346824s-15.661176-27.407059-34.936471-27.407059z m0-219.015529h-258.710588c-19.275294 0-34.936471 12.227765-34.936471 27.346823s15.661176 27.407059 34.936471 27.407059h258.710588c19.275294 0 34.936471-12.288 34.936471-27.407059 0-15.058824-15.661176-27.346824-34.936471-27.346823z m0-164.321882h-258.710588c-19.275294 0-34.936471 12.288-34.936471 27.407058s15.661176 27.346824 34.936471 27.346824h258.710588c19.275294 0 34.936471-12.227765 34.936471-27.346824s-15.661176-27.407059-34.936471-27.407058z"  horiz-adv-x="1204" />

    
    <glyph glyph-name="shoucang" unicode="&#58950;" d="M814.889099-127.3729c-15.236885 0-32.2931 4.320908-48.155381 12.109913l-226.279119 111.32023L312.697275-115.092425a103.190101 103.190101 0 0 0-47.757402-11.541372c-21.831955-0.056854-43.209078 6.822486-60.776979 19.557793-31.838268 23.537577-48.15538 64.245076-40.650646 101.370771l46.620321 237.593075-178.521717 163.625956A106.885614 106.885614 0 0 0 3.979783 500.068396l0.341125 1.193935a102.962685 102.962685 0 0 0 84.200848 70.214752l247.997366 44.346159 111.263376 222.356189A105.236847 105.236847 0 0 0 540.397745 896c40.138959 0 77.435216-23.480723 93.126934-58.445963l110.865398-221.673941 248.05422-42.640538a100.51796 100.51796 0 0 0 82.665788-71.010708c12.223621-36.955132 2.217308-77.548924-25.868592-104.895722l-0.568541-0.568541-178.01003-164.876745 44.971553-238.047907a101.370771 101.370771 0 0 0-40.195813-100.461107 96.310761 96.310761 0 0 0-60.549563-20.751728z m-274.320792 188.186906l252.431982-124.2261a54.579888 54.579888 0 0 1 21.831955-5.969675 36.955132 36.955132 0 0 1 23.480723 7.732151l1.137081 0.909665a44.346159 44.346159 0 0 1 18.193296 43.891326l-50.770667 269.260781 200.979067 186.14016a44.573575 44.573575 0 0 1 11.029686 46.108634l-0.568541 1.705622a41.162332 41.162332 0 0 1-34.282992 29.450398l-1.137081 0.227416-278.130012 47.757402-125.07891 250.100966c-6.140237 13.986096-22.571058 24.106117-39.229295 24.106117a45.824364 45.824364 0 0 1-39.968397-25.641177l-124.339807-248.452198-279.49451-49.917856c-17.056215-2.1036-30.189501-13.19014-36.272884-30.473771a50.088418 50.088418 0 0 1 12.621599-46.734029l201.149629-184.434538-52.760558-269.374489c-3.183827-15.57801 4.320908-33.487035 18.193296-43.777618 6.936194-5.116864 15.919134-7.959567 25.41376-7.959567 7.277318 0 14.213512 1.705621 20.296896 4.889448l0.852811 0.511686 254.421873 124.112392z"  horiz-adv-x="1080" />

    
    <glyph glyph-name="sousuo" unicode="&#58951;" d="M203.353127 692.124417A344.830331 344.830331 0 0 0 511.755753 787.124894c-93.139547-20.516753-184.139025-68.761364-259.36712-143.98946C177.253584 567.953862 129.008973 476.907861 108.445696 383.768314a344.551191 344.551191 0 0 0 94.907431 308.356103z m785.638127-618.340519c46.058018-46.058018 46.058018-121.332637-0.13957-167.297608a118.680811 118.680811 0 0 0-167.251084 0l-121.6583 121.658299a118.169056 118.169056 0 0 0-34.101542 92.767361c-165.576248-114.447196-394.098453-98.024488-541.437587 49.314645a424.943368 424.943368 0 0 0 0 600.847778 424.757275 424.757275 0 0 0 600.708208 0 424.989891 424.989891 0 0 0 49.500738-541.530633c34.427205 2.744872 68.296131-9.769883 92.720838-34.148066l121.658299-121.611776z m-313.194521 145.943436A354.879353 354.879353 0 0 1 174.043479 721.620158a354.83283 354.83283 0 0 1 0-501.892824 354.69326 354.69326 0 0 1 501.753254 0z"  horiz-adv-x="1024" />

    
    <glyph glyph-name="shuju" unicode="&#58952;" d="M302.544058 582.795636s0-559.662545-0.139636-559.522909H127.998604V582.795636c0 21.317818 17.594182 33.931636 37.143272 33.931637h106.821819c19.688727 0 30.580364-10.705455 30.580363-33.931637zM969.912785-53.527273c16.523636 0 31.045818-12.520727 30.813091-31.418182 0-18.944-14.429091-31.418182-30.906181-31.418181H23.271331V862.487273C23.271331 881.338182 37.886604 896 54.317149 896c16.477091 0 30.906182-14.754909 30.906182-33.512727V-53.527273h884.689454zM521.586967 817.105455v-793.693091H337.453149V817.105455c0 22.946909 24.669091 43.985455 43.008 43.985454h100.258909c18.338909 0 40.866909-20.945455 40.866909-43.985454zM930.907695 576.325818l-0.093091-552.96H767.067695V576.372364c0 21.038545 20.526545 33.512727 38.912 33.512727h100.258909c18.478545 0 24.622545-10.565818 24.622545-33.512727z m-204.70691-205.358545v-347.694546h-163.700363v347.694546c0 23.04 12.334545 50.269091 30.673454 50.269091h100.258909c18.478545 0 32.768-27.229091 32.768-50.269091z"  horiz-adv-x="1024" />

    
    <glyph glyph-name="shuhou" unicode="&#58953;" d="M902.260846 81.92c16.420571-16.530286-215.771429 194.523429-215.771429 194.523429s-15.433143 9.398857-15.433143-53.321143v-145.408h160.804572c54.381714 0 98.486857-49.444571 98.486857-103.972572 0-54.601143-44.105143-101.741714-98.486857-101.741714H192.153417c-54.345143 0-98.523429 47.177143-98.523428 101.741714 0 54.528 44.178286 103.972571 98.523428 103.972572h168.667429V223.085714c0 62.72-23.222857 53.321143-23.222857 53.321143s-232.192-211.017143-215.771429-194.523428C20.596846 5.12-6.063726 127.049143 40.491703 179.2c30.098286 27.428571 225.170286 185.051429 225.170286 185.051429s49.152 236.544 248.758857 237.092571v0.073143h0.694857v-0.073143c199.533714-0.475429 243.309714-237.092571 243.309714-237.092571s195.072-157.549714 225.170286-185.051429c46.555429-52.150857 19.894857-174.08-81.371429-97.28zM514.384274 647.131429a124.196571 124.196571 0 0 0-124.086857 124.416A124.196571 124.196571 0 0 0 514.420846 896a124.233143 124.233143 0 0 0 124.050285-124.452571 124.233143 124.233143 0 0 0-124.050285-124.416z"  horiz-adv-x="1024" />

    
    <glyph glyph-name="baogao" unicode="&#58954;" d="M839.496882 822.857169c41.289128 0 74.67883-33.133702 74.788545-74.093688V-53.759661c0-40.959985-33.499417-74.239973-74.788545-74.239973H184.50283A74.532545 74.532545 0 0 0 109.714286-53.759661V748.617195C109.714286 789.577181 143.213702 822.857169 184.50283 822.857169c41.3257 0 74.825116-33.279988 74.825117-74.239974v-46.00684h505.343819V748.617195c0 40.959985 33.535988 74.239973 74.825116 74.239974zM415.926748 194.340822a29.18399 29.18399 0 0 1-0.146286 41.874271 29.842275 29.842275 0 0 1-42.166842 0l-61.037692-60.598836-21.138279 20.991993a29.842275 29.842275 0 0 1-42.203413 0 29.293704 29.293704 0 0 1 0-41.8377l42.313128-41.983985a29.842275 29.842275 0 0 1 42.166842 0l82.212542 81.554257z m0 271.140475a29.330275 29.330275 0 0 1-0.146286 41.983985 29.842275 29.842275 0 0 1-42.166842 0L312.575928 446.903018l-21.138279 20.991992a29.842275 29.842275 0 0 1-42.203413 0 29.293704 29.293704 0 0 1 0-41.874271l42.313128-42.093699a29.842275 29.842275 0 0 1 42.166842 0l82.212542 81.554257z m378.697007-358.509587a29.586275 29.586275 0 0 1-29.805703 29.586276h-239.323343a29.732561 29.732561 0 0 1-29.805704-29.622847c0-16.27428 13.385138-29.549704 29.805704-29.549704h239.323343c16.457137 0 29.805704 13.275424 29.805703 29.586275z m-29.805703 105.581677c16.457137 0 29.805704 13.275424 29.805703 29.622847a29.732561 29.732561 0 0 1-29.805703 29.549703h-239.323343a29.732561 29.732561 0 0 1-29.805704-29.586275c0-16.310851 13.385138-29.586275 29.805704-29.586275h239.323343z m29.805703 165.558798a29.586275 29.586275 0 0 1-29.805703 29.586275h-239.323343a29.732561 29.732561 0 0 1-29.805704-29.622846c0-16.310851 13.385138-29.586275 29.805704-29.586276h239.323343c16.457137 0 29.805704 13.275424 29.805703 29.622847z m-29.805703 105.581677c16.457137 0 29.805704 13.275424 29.805703 29.586275a29.732561 29.732561 0 0 1-29.805703 29.622846h-239.323343a29.732561 29.732561 0 0 1-29.805704-29.622846c0-16.310851 13.385138-29.622847 29.805704-29.622847h239.323343zM393.142756 896h274.285616C702.75636 896 731.428349 871.424009 731.428349 841.142877S702.75636 786.285753 667.428372 786.285753h-274.285616C357.814769 786.285753 329.142779 810.861745 329.142779 841.142877 329.289064 871.424009 357.814769 896 393.142756 896z"  horiz-adv-x="1024" />

    
    <glyph glyph-name="yuyue" unicode="&#58955;" d="M265.481481 687.407407C265.481481 802.62637 350.39763 896 455.111111 896s189.62963-93.37363 189.62963-208.592593-84.916148-208.592593-189.62963-208.592592-189.62963 93.37363-189.62963 208.592592z m595.626667-653.691259S910.222222 20.517926 910.222222-45.511111C910.222222-111.502222 869.262222-128 818.555259-128h-344.632889s-44.183704 18.962963-108.847407 157.582222c-64.663704 138.619259-74.486519 160.047407-74.486519 160.047408l-55.675259-35.460741 131.792593-258.275556H0s36.826074 424.922074 97.014519 501.684148C157.165037 474.263704 235.823407 478.814815 273.180444 478.814815c77.368889 0 156.558222-22.262519 235.747556-219.060148l81.009778-193.042963 191.525926-16.687408-37.394963 100.845037s2.806519 13.198222 37.394963 13.198223c34.62637 0 64.929185-97.355852 79.644444-130.351408zM731.553185 402.962963L1099.851852 252.472889s-147.835259-231.196444-166.949926-228.731259c-19.114667 2.427259-5.082074 59.922963-5.082074 59.922963l100.655407 144.346074-273.976889 120.111407-131.299555-206.961778c-44.600889 59.922963 12.781037 134.561185 42.097778 163.915852 29.278815 29.392593 66.256593 97.886815 66.256592 97.886815z"  horiz-adv-x="1099" />

    
    <glyph glyph-name="linchuang" unicode="&#58956;" d="M792.494026 4.449142v34.410044l33.032068 31.61472v-66.024764h-33.032068z m214.688754 197.40499l-35.945504 33.740741h85.434549v-78.623407l-29.882407 27.205195-109.450712-88.111761-60.827824 49.489045-97.048923-75.080039v32.677731l97.048923 75.040668 59.174252-49.489045 91.497646 73.150872z m-22.086996-197.40499v124.84468L1023.639758 169.530738v-165.081596h-38.583345z m-126.576993 101.064741l19.17356 19.960975 19.17356-19.960975v-101.064741h-38.34712v101.064741z m62.953845-25.86659l8.504084-7.322961 29.803665 31.417866v-99.293056h-38.307749v75.198151z m-12.598644 250.24055a209.609926 209.609926 0 0 1-209.058735-209.84615 210.161116 210.161116 0 1 1 209.058735 209.84615z m0 37.79593a247.366484 247.366484 0 0 0 246.854665-247.64208 247.64208 247.64208 0 1 0-246.854665 247.64208z m-251.067335-122.324951a294.572026 294.572026 0 0 1-32.244653-83.859719H83.466011v-154.097154a37.008514 37.008514 0 0 0-12.519902-26.811488 36.575436 36.575436 0 0 0-28.071351-8.976533A40.94559 40.94559 0 0 0 0 7.44132V858.20407C2.440987 879.149315 19.68538 895.212585 40.591253 896h4.724492c20.70902-0.275595 37.480963-16.929427 38.110895-37.756559v-134.766111c9.606465 6.22058 20.787761 9.606465 32.244653 9.803319h104.253772a128.624273 128.624273 0 0 0 83.387269-32.992696 109.84442 109.84442 0 0 0 37.559705-80.237609v-35.23683A114.568911 114.568911 0 0 0 326.3836 538.907208h513.788416c83.42664-0.472449 150.711269-68.780718 150.396303-152.679807v-3.897705a300.359527 300.359527 0 0 1-76.458016 10.354509h-3.897705c-0.275595 18.11055-7.874152 35.433684-21.102727 47.756732a65.946023 65.946023 0 0 1-48.937855 17.677471H81.182507v-212.798957h576.62415zM115.120102 654.972208a34.016337 34.016337 0 0 1-31.693462-33.268292v-42.205455c0-19.016077 8.897792-40.276287 32.244653-40.276287H218.507717a45.670081 45.670081 0 0 1 46.142531 40.276287v34.921864a45.945677 45.945677 0 0 1-46.142531 40.551883H115.120102z"  horiz-adv-x="1181" />

    
    <glyph glyph-name="xiaoxi" unicode="&#58957;" d="M681.78716445 805.20533333H342.00689778c-172.77724445 0-313.34968889-138.25706667-313.34968889-308.19783111v-56.37916444c0-177.2544 143.49425778-326.99505778 313.34968889-326.99505778h91.36128l275.42186667-150.40284445a30.35363555 30.35363555 0 0 1 14.52714666-3.69777777c5.3248 0 10.64618667 1.39605333 15.38389334 4.1984a30.01002667 30.01002667 0 0 1 14.81955555 25.87306667V140.06044444999998c145.55363555 35.72053333 241.61962667 153.70467555 241.61962667 300.56675555v56.38030222c0 169.94190222-140.57244445 308.19783111-313.35310222 308.19783111z m252.94734222-364.57585778c0-126.85425778-85.03182222-223.63477333-216.62492445-246.56896-14.45091555-2.50766222-24.99697778-15.00387555-24.99697777-29.61408v-124.05873777l-237.47697778 129.68391111a30.44238222 30.44238222 0 0 1-14.52600889 3.70005333h-99.10385778c-134.74247111 0-252.94506667 124.69361778-252.94506667 266.85667556v56.37916444c0 136.77568 113.46488889 248.06513778 252.94506667 248.06513778h339.78026667c139.48472889 0 252.94734222-111.28945778 252.94734222-248.06513778v-56.37802667z m-669.3888-28.7584711h59.17240888v98.33358222h-59.1712711v-98.33358222z m216.96853333 0h59.17013333v98.33358222H482.31537778v-98.33358222z m216.96284445 0h59.17240888v98.33358222H699.27822222v-98.33358222z"  horiz-adv-x="1024" />

    
    <glyph glyph-name="zhibo" unicode="&#58960;" d="M792.58624 319.829333V418.679467a27.579733 27.579733 0 0 1-27.374933 27.8528H78.85824a27.579733 27.579733 0 0 1-27.374933-27.8528v-435.336534c0-15.428267 12.288-27.8528 27.306666-27.8528H765.279573a27.579733 27.579733 0 0 1 27.306667 27.8528v66.218667a40.96 40.96 0 0 0-16.657067 34.747733V285.013333a40.96 40.96 0 0 0 16.725334 34.816z m51.473067 20.343467l205.141333 75.298133a28.808533 28.808533 0 0 0 8.8064 1.365334v-0.2048c18.363733 0 34.269867-17.749333 34.269867-40.823467v-382.293333c0-23.1424-15.906133-40.823467-34.269867-40.823467a28.808533 28.808533 0 0 0-8.874667 1.365333l-205.073066 75.093334v-45.806934c0-21.2992-8.260267-41.710933-23.074134-56.797866-14.7456-15.018667-34.816-23.483733-55.773866-23.483734H78.85824c-20.957867 0-40.96 8.465067-55.842133 23.483734A80.827733 80.827733 0 0 0 0.01024-16.657067V418.679467c0 44.2368 35.293867 80.145067 78.848 80.145066h53.794133a143.633067 143.633067 0 0 0-40.891733 30.037334A156.330667 156.330667 0 0 0 60.562773 693.248c22.254933 56.388267 74.683733 93.115733 132.778667 93.115733 79.325867 0 143.633067-67.447467 143.701333-150.7328 0-58.845867-32.5632-112.162133-83.012266-136.8064h254.088533C435.21024 528.725333 383.668907 603.272533 383.668907 690.3808 383.60064 803.908267 471.25504 896 579.457707 896c51.882667 0 101.717333-21.640533 138.4448-60.2112a210.944 210.944 0 0 0 57.344-145.408c0-87.176533-51.6096-161.655467-124.5184-191.556267h114.4832c43.554133 0 78.848-35.908267 78.848-80.145066v-78.506667z m0-55.9104v-199.202133l197.973333-72.567467V356.829867l-197.973333-72.567467zM193.34144 733.661867c-51.541333-0.068267-93.320533-43.963733-93.3888-98.030934 0-39.7312 22.7328-75.502933 57.617067-90.7264 34.952533-15.223467 75.1616-6.826667 101.922133 21.230934a101.717333 101.717333 0 0 1 20.206933 106.973866 93.525333 93.525333 0 0 1-86.357333 60.552534zM579.457707 843.298133c-80.4864 0-145.681067-68.471467-145.681067-152.917333 0-61.8496 35.498667-117.623467 89.9072-141.312a140.629333 140.629333 0 0 1 158.72 33.1776c41.642667 43.690667 54.135467 109.499733 31.607467 166.638933C691.483307 806.024533 638.303573 843.298133 579.457707 843.298133z"  horiz-adv-x="1092" />

    
    <glyph glyph-name="didian" unicode="&#58961;" d="M309.504506 217.983135a1510.396224 1510.396224 0 0 1 152.959618-171.007572 30.783923 30.783923 0 0 1 41.855895 0c3.199992 2.879993 77.567806 72.575819 153.087617 171.007572 44.671888 58.239854 80.255799 114.431714 105.983736 167.039582 33.023917 67.775831 49.663876 130.111675 49.663875 185.663536a320.767198 320.767198 0 0 1-96.575758 230.015425A329.407176 329.407176 0 0 1 483.456071 895.99744c-88.06378 0-170.879573-33.919915-233.023417-95.359762a321.151197 321.151197 0 0 1-96.639758-229.951425c0-55.423861 16.831958-117.887705 49.727875-185.599536 25.727936-52.671868 61.439846-108.927728 105.983735-167.103582M483.456071 835.83759C631.423701 835.83759 751.9994 716.797888 751.9994 570.814253c0-174.079565-201.983495-392.255019-268.543329-459.262852-66.559834 67.007832-268.543329 284.991288-268.543328 459.262852 0 146.047635 120.511699 264.959338 268.543328 264.959338M633.599696 570.878253c0 81.727796-67.391832 148.223629-150.207624 148.223629-82.879793 0-150.207624-66.495834-150.207625-148.223629s67.327832-148.223629 150.207625-148.22363c82.815793 0 150.207624 66.495834 150.207624 148.22363m-239.231402 0c0 48.575879 40.0639 87.87178 88.959778 87.87178 49.279877 0 89.087777-39.551901 89.087777-87.87178 0-48.575879-40.0639-87.80778-89.023777-87.807781a88.319779 88.319779 0 0 0-88.959778 87.807781m566.206584-531.198672l-54.079864 165.055587a129.599676 129.599676 0 0 1-123.839691 88.831778h-2.431994a30.335924 30.335924 0 0 1-30.591923-30.207924c0-16.639958 13.631966-30.143925 30.591923-30.143925h2.431994c30.079925 0 56.447859-19.007952 65.663836-47.103882l54.079865-164.991588c6.847983-20.927948 3.199992-43.327892-9.791976-60.991847a68.543829 68.543829 0 0 0-55.80786-28.03193H130.112955c-22.399944 0-42.559894 10.111975-55.679861 27.90393a66.239834 66.239834 0 0 0-9.919975 60.991848l53.503866 164.991587c9.151977 28.351929 35.583911 47.359882 65.727836 47.359882 16.895958 0 30.591924 13.439966 30.591923 30.143924a30.335924 30.335924 0 0 1-30.591923 30.207925c-56.767858 0-106.559734-35.96791-123.903691-89.215777l-53.503866-164.991588c-12.799968-39.487901-5.951985-81.407796 18.687953-114.815713 24.703938-33.407916 62.975843-52.607868 104.959738-52.607868h706.814233c42.111895 0 80.383799 19.263952 105.151737 52.799868 24.959938 33.279917 31.679921 75.455811 18.751953 114.815713"  horiz-adv-x="1024" />

    
    <glyph glyph-name="shijian" unicode="&#58962;" d="M747.328 64.576h41.344c23.936 0 43.328 14.336 43.328 32.064s-19.392 32.064-43.328 32.064h-41.344c-23.936 0-43.328-14.336-43.328-32.064s19.392-32.064 43.328-32.064z m0 192.512h41.344c23.936 0 43.328 14.4 43.328 32.128 0 17.664-19.392 32.064-43.328 32.064h-41.344c-23.936 0-43.328-14.4-43.328-32.064 0-17.728 19.392-32.128 43.328-32.128z m-256 0h41.344c23.936 0 43.328 14.4 43.328 32.128 0 17.664-19.392 32.064-43.328 32.064h-41.344c-23.936 0-43.328-14.4-43.328-32.064 0-17.728 19.392-32.128 43.328-32.128z m-256 0h41.344c23.936 0 43.328 14.4 43.328 32.128 0 17.664-19.392 32.064-43.328 32.064h-41.344c-23.936 0-43.328-14.4-43.328-32.064 0-17.728 19.392-32.128 43.328-32.128z m256-192.512h41.344c23.936 0 43.328 14.336 43.328 32.064s-19.392 32.064-43.328 32.064h-41.344c-23.936 0-43.328-14.336-43.328-32.064s19.392-32.064 43.328-32.064z m-256 0h41.344c23.936 0 43.328 14.336 43.328 32.064s-19.392 32.064-43.328 32.064h-41.344c-23.936 0-43.328-14.336-43.328-32.064s19.392-32.064 43.328-32.064zM835.52 770.56h-64.64V861.888a31.424 31.424 0 0 1-62.656 3.136V770.56H319.04V861.888a31.424 31.424 0 0 1-62.656 3.136V770.56h-67.84C84.608 770.56 0 697.472 0 559.424v-496.384c0-99.2 75.008-180.992 170.624-190.208l664.96-0.832C939.392-128 1024-42.24 1024 63.104V579.52c0 105.344-84.48 191.04-188.48 191.04zM960 44.224c0-59.52-51.584-108.032-114.944-108.032H179.008C115.648-63.808 64-15.36 64 44.16V449.664h896v-405.44z m0 554.112v-84.48H64v84.48c0 52.928 46.4 108.032 128 108.032h64.32v-96.32a31.424 31.424 0 1 1 62.656 3.776V706.368h389.312v-96.32a31.424 31.424 0 1 1 62.656 3.776V706.368H832c63.36 0 133.568-46.912 128-108.032z"  horiz-adv-x="1024" />

    


  </font>
</defs>
</svg>
